G04 EAGLE Gerber RS-274X export*
G75*
%MOMM*%
%FSLAX34Y34*%
%LPD*%
%INSilkscreen Bottom*%
%IPPOS*%
%AMOC8*
5,1,8,0,0,1.08239X$1,22.5*%
G01*
%ADD10C,0.101600*%
%ADD11C,0.152400*%
%ADD12R,0.120000X0.020000*%
%ADD13R,0.340000X0.020000*%
%ADD14R,0.320000X0.020000*%
%ADD15R,0.140000X0.020000*%
%ADD16R,0.280000X0.020000*%
%ADD17R,0.360000X0.020000*%
%ADD18R,0.420000X0.020000*%
%ADD19R,0.380000X0.020000*%
%ADD20R,0.480000X0.020000*%
%ADD21R,0.540000X0.020000*%
%ADD22R,0.560000X0.020000*%
%ADD23R,0.400000X0.020000*%
%ADD24R,0.640000X0.020000*%
%ADD25R,0.620000X0.020000*%
%ADD26R,0.700000X0.020000*%
%ADD27R,0.660000X0.020000*%
%ADD28R,0.740000X0.020000*%
%ADD29R,1.080000X0.020000*%
%ADD30R,0.800000X0.020000*%
%ADD31R,1.100000X0.020000*%
%ADD32R,0.440000X0.020000*%
%ADD33R,0.840000X0.020000*%
%ADD34R,1.120000X0.020000*%
%ADD35R,0.460000X0.020000*%
%ADD36R,0.860000X0.020000*%
%ADD37R,0.900000X0.020000*%
%ADD38R,1.140000X0.020000*%
%ADD39R,0.920000X0.020000*%
%ADD40R,1.160000X0.020000*%
%ADD41R,0.960000X0.020000*%
%ADD42R,0.500000X0.020000*%
%ADD43R,0.520000X0.020000*%
%ADD44R,0.940000X0.020000*%
%ADD45R,0.260000X0.020000*%
%ADD46R,0.180000X0.020000*%
%ADD47R,0.580000X0.020000*%
%ADD48R,0.060000X0.020000*%
%ADD49R,0.600000X0.020000*%
%ADD50R,0.300000X0.020000*%
%ADD51R,0.040000X0.020000*%
%ADD52R,0.100000X0.020000*%
%ADD53R,0.160000X0.020000*%
%ADD54R,0.220000X0.020000*%
%ADD55R,0.980000X0.020000*%
%ADD56R,0.880000X0.020000*%
%ADD57R,0.760000X0.020000*%
%ADD58R,1.060000X0.020000*%
%ADD59R,0.720000X0.020000*%
%ADD60R,0.820000X0.020000*%
%ADD61R,1.180000X0.020000*%
%ADD62R,1.340000X0.020000*%
%ADD63R,1.460000X0.020000*%
%ADD64R,1.600000X0.020000*%
%ADD65R,1.700000X0.020000*%
%ADD66R,1.820000X0.020000*%
%ADD67R,1.900000X0.020000*%
%ADD68R,1.980000X0.020000*%
%ADD69R,2.100000X0.020000*%
%ADD70R,2.160000X0.020000*%
%ADD71R,2.260000X0.020000*%
%ADD72R,2.340000X0.020000*%
%ADD73R,2.400000X0.020000*%
%ADD74R,2.480000X0.020000*%
%ADD75R,2.540000X0.020000*%
%ADD76R,2.600000X0.020000*%
%ADD77R,2.680000X0.020000*%
%ADD78R,2.720000X0.020000*%
%ADD79R,2.800000X0.020000*%
%ADD80R,2.840000X0.020000*%
%ADD81R,2.900000X0.020000*%
%ADD82R,2.960000X0.020000*%
%ADD83R,3.000000X0.020000*%
%ADD84R,3.060000X0.020000*%
%ADD85R,3.120000X0.020000*%
%ADD86R,3.160000X0.020000*%
%ADD87R,3.200000X0.020000*%
%ADD88R,3.260000X0.020000*%
%ADD89R,3.300000X0.020000*%
%ADD90R,3.340000X0.020000*%
%ADD91R,3.380000X0.020000*%
%ADD92R,3.420000X0.020000*%
%ADD93R,3.460000X0.020000*%
%ADD94R,3.520000X0.020000*%
%ADD95R,3.540000X0.020000*%
%ADD96R,3.580000X0.020000*%
%ADD97R,3.620000X0.020000*%
%ADD98R,3.660000X0.020000*%
%ADD99R,3.700000X0.020000*%
%ADD100R,3.740000X0.020000*%
%ADD101R,3.780000X0.020000*%
%ADD102R,3.800000X0.020000*%
%ADD103R,3.840000X0.020000*%
%ADD104R,3.860000X0.020000*%
%ADD105R,3.900000X0.020000*%
%ADD106R,3.940000X0.020000*%
%ADD107R,3.960000X0.020000*%
%ADD108R,3.980000X0.020000*%
%ADD109R,4.020000X0.020000*%
%ADD110R,4.060000X0.020000*%
%ADD111R,4.080000X0.020000*%
%ADD112R,4.100000X0.020000*%
%ADD113R,4.120000X0.020000*%
%ADD114R,4.160000X0.020000*%
%ADD115R,4.180000X0.020000*%
%ADD116R,4.200000X0.020000*%
%ADD117R,4.240000X0.020000*%
%ADD118R,4.260000X0.020000*%
%ADD119R,4.280000X0.020000*%
%ADD120R,4.300000X0.020000*%
%ADD121R,4.320000X0.020000*%
%ADD122R,4.340000X0.020000*%
%ADD123R,4.380000X0.020000*%
%ADD124R,4.400000X0.020000*%
%ADD125R,4.440000X0.020000*%
%ADD126R,4.460000X0.020000*%
%ADD127R,4.500000X0.020000*%
%ADD128R,4.520000X0.020000*%
%ADD129R,4.540000X0.020000*%
%ADD130R,4.560000X0.020000*%
%ADD131R,4.580000X0.020000*%
%ADD132R,4.600000X0.020000*%
%ADD133R,4.620000X0.020000*%
%ADD134R,4.640000X0.020000*%
%ADD135R,4.660000X0.020000*%
%ADD136R,4.680000X0.020000*%
%ADD137R,4.700000X0.020000*%
%ADD138R,4.720000X0.020000*%
%ADD139R,4.740000X0.020000*%
%ADD140R,0.680000X0.020000*%
%ADD141R,1.480000X0.020000*%
%ADD142R,1.580000X0.020000*%
%ADD143R,1.560000X0.020000*%
%ADD144R,1.540000X0.020000*%
%ADD145R,1.520000X0.020000*%
%ADD146R,1.500000X0.020000*%
%ADD147R,1.440000X0.020000*%
%ADD148R,1.400000X0.020000*%
%ADD149R,1.420000X0.020000*%
%ADD150R,1.380000X0.020000*%
%ADD151R,1.360000X0.020000*%
%ADD152R,1.320000X0.020000*%
%ADD153R,1.300000X0.020000*%
%ADD154R,1.260000X0.020000*%
%ADD155R,1.220000X0.020000*%
%ADD156R,1.200000X0.020000*%
%ADD157R,1.040000X0.020000*%
%ADD158R,1.020000X0.020000*%
%ADD159R,1.000000X0.020000*%
%ADD160R,1.280000X0.020000*%
%ADD161R,0.780000X0.020000*%
%ADD162R,1.240000X0.020000*%
%ADD163R,0.020000X0.020000*%
%ADD164R,1.840000X0.020000*%
%ADD165R,1.800000X0.020000*%
%ADD166R,1.780000X0.020000*%
%ADD167R,1.760000X0.020000*%
%ADD168R,1.740000X0.020000*%
%ADD169R,1.680000X0.020000*%
%ADD170R,1.660000X0.020000*%
%ADD171R,1.620000X0.020000*%

G36*
X171893Y328824D02*
X171893Y328824D01*
X171892Y328824D01*
X171893Y328825D01*
X171890Y331215D01*
X171885Y333602D01*
X171882Y335991D01*
X171877Y338381D01*
X171874Y340768D01*
X171869Y343157D01*
X171866Y345544D01*
X171866Y345547D01*
X171861Y347934D01*
X171858Y350324D01*
X171856Y352711D01*
X171850Y355100D01*
X171848Y357487D01*
X171842Y359877D01*
X171840Y362264D01*
X171835Y362270D01*
X171834Y362274D01*
X169532Y363608D01*
X167230Y364941D01*
X164931Y366275D01*
X160328Y368942D01*
X158029Y370275D01*
X153426Y372942D01*
X151127Y374276D01*
X148825Y375609D01*
X146518Y376948D01*
X144212Y378284D01*
X141907Y379620D01*
X139600Y380959D01*
X137293Y382298D01*
X134989Y383634D01*
X132682Y384973D01*
X130378Y386312D01*
X128071Y387653D01*
X125790Y388986D01*
X128184Y390022D01*
X130609Y391051D01*
X133033Y392078D01*
X135460Y393102D01*
X137887Y394123D01*
X140314Y395145D01*
X142741Y396164D01*
X145170Y397185D01*
X147597Y398201D01*
X149904Y399169D01*
X152208Y400138D01*
X154515Y401103D01*
X156820Y402071D01*
X159127Y403037D01*
X161431Y404005D01*
X163738Y404973D01*
X166042Y405941D01*
X168349Y406909D01*
X170653Y407877D01*
X170654Y407877D01*
X171832Y408379D01*
X171835Y408384D01*
X171839Y408388D01*
X171838Y408390D01*
X171839Y408393D01*
X171832Y408396D01*
X171828Y408402D01*
X166526Y408402D01*
X163875Y408404D01*
X140018Y408404D01*
X137367Y408407D01*
X116165Y408407D01*
X113514Y408410D01*
X92308Y408410D01*
X92297Y408399D01*
X92297Y408398D01*
X92296Y408398D01*
X92299Y406005D01*
X92304Y403610D01*
X92307Y401218D01*
X92312Y398823D01*
X92315Y396431D01*
X92318Y394036D01*
X92323Y391641D01*
X92326Y389249D01*
X92331Y386854D01*
X92334Y384461D01*
X92339Y382066D01*
X92342Y379674D01*
X92347Y377279D01*
X92350Y374884D01*
X92355Y374878D01*
X92356Y374874D01*
X94652Y373546D01*
X96946Y372215D01*
X99242Y370887D01*
X101538Y369556D01*
X103832Y368225D01*
X106128Y366897D01*
X108422Y365566D01*
X110718Y364235D01*
X113014Y362907D01*
X115308Y361576D01*
X122213Y357576D01*
X124514Y356239D01*
X129118Y353572D01*
X131417Y352236D01*
X133718Y350903D01*
X136017Y349564D01*
X138296Y348237D01*
X135872Y347182D01*
X133416Y346140D01*
X130962Y345102D01*
X128506Y344065D01*
X126047Y343030D01*
X123588Y341995D01*
X121129Y340963D01*
X118670Y339931D01*
X116365Y338965D01*
X114058Y337997D01*
X111752Y337029D01*
X109445Y336064D01*
X107140Y335096D01*
X104833Y334127D01*
X102526Y333162D01*
X100222Y332194D01*
X97915Y331226D01*
X95611Y330258D01*
X93931Y329551D01*
X92250Y328844D01*
X92248Y328839D01*
X92243Y328835D01*
X92245Y328833D01*
X92244Y328830D01*
X92250Y328827D01*
X92255Y328821D01*
X97562Y328821D01*
X100216Y328818D01*
X134722Y328818D01*
X137375Y328816D01*
X169227Y328816D01*
X171881Y328813D01*
X171893Y328824D01*
G37*
G36*
X140678Y307672D02*
X140678Y307672D01*
X142067Y307741D01*
X142069Y307743D01*
X142070Y307742D01*
X144255Y308491D01*
X144256Y308493D01*
X144258Y308493D01*
X146157Y309802D01*
X146157Y309804D01*
X146159Y309804D01*
X147615Y311594D01*
X147615Y311596D01*
X147617Y311597D01*
X148489Y313731D01*
X148488Y313733D01*
X148490Y313734D01*
X148671Y315753D01*
X148670Y315754D01*
X148671Y315755D01*
X148442Y317766D01*
X148440Y317768D01*
X148441Y317770D01*
X147414Y320066D01*
X147412Y320067D01*
X147412Y320069D01*
X145756Y321963D01*
X145754Y321963D01*
X145753Y321965D01*
X144222Y322904D01*
X144221Y322904D01*
X144221Y322905D01*
X142551Y323574D01*
X142549Y323573D01*
X142548Y323575D01*
X140678Y323746D01*
X140364Y323775D01*
X140362Y323774D01*
X140361Y323775D01*
X138174Y323583D01*
X138173Y323581D01*
X138171Y323582D01*
X136293Y322817D01*
X136293Y322815D01*
X136291Y322816D01*
X134611Y321685D01*
X134610Y321683D01*
X134609Y321683D01*
X133184Y319994D01*
X133184Y319992D01*
X133182Y319991D01*
X132316Y317962D01*
X132316Y317960D01*
X132315Y317958D01*
X132051Y315764D01*
X132052Y315762D01*
X132051Y315761D01*
X132192Y313948D01*
X132194Y313946D01*
X132193Y313944D01*
X132817Y312238D01*
X132819Y312237D01*
X132818Y312235D01*
X134085Y310315D01*
X134087Y310314D01*
X134087Y310312D01*
X135847Y308835D01*
X135850Y308835D01*
X135850Y308833D01*
X137960Y307910D01*
X137962Y307911D01*
X137963Y307909D01*
X140006Y307637D01*
X140007Y307638D01*
X140008Y307637D01*
X140678Y307672D01*
G37*
G36*
X171893Y307920D02*
X171893Y307920D01*
X171892Y307920D01*
X171893Y307921D01*
X171888Y309228D01*
X171882Y310535D01*
X171879Y310539D01*
X171879Y310543D01*
X170453Y312196D01*
X167599Y315503D01*
X166172Y317157D01*
X163335Y320444D01*
X165371Y320457D01*
X167435Y320471D01*
X169497Y320484D01*
X171561Y320500D01*
X171573Y320511D01*
X171572Y320511D01*
X171573Y320512D01*
X171573Y323494D01*
X171562Y323506D01*
X171562Y323505D01*
X171561Y323506D01*
X158759Y323506D01*
X158748Y323495D01*
X158748Y323494D01*
X158747Y323494D01*
X158747Y320984D01*
X158751Y320980D01*
X158750Y320976D01*
X160188Y319307D01*
X161625Y317637D01*
X163060Y315965D01*
X164498Y314295D01*
X165933Y312626D01*
X167353Y310973D01*
X166716Y310965D01*
X166714Y310965D01*
X165757Y310953D01*
X165755Y310953D01*
X165237Y310947D01*
X164798Y310941D01*
X164796Y310941D01*
X163839Y310929D01*
X163837Y310929D01*
X163836Y310929D01*
X163096Y310920D01*
X162880Y310917D01*
X162878Y310917D01*
X161922Y310905D01*
X161920Y310905D01*
X160964Y310894D01*
X160962Y310894D01*
X160962Y310893D01*
X160954Y310893D01*
X160005Y310882D01*
X160003Y310882D01*
X159046Y310870D01*
X159044Y310870D01*
X158813Y310867D01*
X158801Y310856D01*
X158801Y310855D01*
X158771Y309388D01*
X158742Y307921D01*
X158752Y307909D01*
X158753Y307910D01*
X158754Y307909D01*
X171881Y307909D01*
X171893Y307920D01*
G37*
G36*
X116856Y307752D02*
X116856Y307752D01*
X116858Y307754D01*
X116860Y307753D01*
X119180Y308611D01*
X119181Y308614D01*
X119183Y308613D01*
X121125Y310144D01*
X121125Y310146D01*
X121127Y310147D01*
X122498Y312206D01*
X122498Y312208D01*
X122499Y312208D01*
X123062Y313883D01*
X123062Y313884D01*
X123061Y313885D01*
X123063Y313886D01*
X123191Y315655D01*
X123190Y315656D01*
X123191Y315656D01*
X123036Y317585D01*
X123034Y317586D01*
X123035Y317588D01*
X122350Y319393D01*
X122348Y319394D01*
X122349Y319396D01*
X121205Y321159D01*
X121202Y321159D01*
X121202Y321161D01*
X119605Y322524D01*
X119603Y322524D01*
X119602Y322526D01*
X117698Y323417D01*
X117696Y323416D01*
X117696Y323417D01*
X116357Y323743D01*
X116355Y323742D01*
X116354Y323743D01*
X116125Y323746D01*
X116123Y323746D01*
X115243Y323758D01*
X115241Y323758D01*
X114975Y323762D01*
X114975Y323761D01*
X114975Y323762D01*
X114823Y323758D01*
X114822Y323758D01*
X114320Y323746D01*
X114319Y323746D01*
X113817Y323734D01*
X113815Y323734D01*
X113625Y323730D01*
X113624Y323729D01*
X113623Y323729D01*
X112306Y323463D01*
X112305Y323462D01*
X112304Y323462D01*
X110826Y322873D01*
X110825Y322871D01*
X110824Y322872D01*
X109507Y321983D01*
X109506Y321980D01*
X109503Y321980D01*
X109023Y321214D01*
X109025Y321205D01*
X109024Y321200D01*
X110013Y320038D01*
X110014Y320037D01*
X111038Y318901D01*
X111044Y318900D01*
X111045Y318899D01*
X111050Y318899D01*
X111050Y318900D01*
X111054Y318899D01*
X111054Y318900D01*
X111645Y319334D01*
X113371Y320316D01*
X115332Y320577D01*
X116765Y320279D01*
X117991Y319482D01*
X119189Y317763D01*
X119598Y315709D01*
X119189Y313652D01*
X117991Y311936D01*
X116755Y311135D01*
X115308Y310838D01*
X113339Y311069D01*
X111621Y312076D01*
X110929Y312616D01*
X110913Y312615D01*
X109819Y311530D01*
X108729Y310442D01*
X108728Y310438D01*
X108728Y310437D01*
X108728Y310426D01*
X108729Y310426D01*
X108729Y310425D01*
X109233Y309908D01*
X109234Y309908D01*
X109234Y309907D01*
X110447Y308928D01*
X110449Y308928D01*
X110449Y308927D01*
X111814Y308172D01*
X111817Y308173D01*
X111818Y308171D01*
X114309Y307643D01*
X114310Y307644D01*
X114312Y307642D01*
X116856Y307752D01*
G37*
G36*
X99830Y307666D02*
X99830Y307666D01*
X99831Y307668D01*
X99833Y307667D01*
X102177Y308384D01*
X102178Y308386D01*
X102180Y308386D01*
X104261Y309815D01*
X104261Y309818D01*
X104263Y309818D01*
X105768Y311842D01*
X105767Y311845D01*
X105769Y311846D01*
X106572Y314241D01*
X106571Y314243D01*
X106573Y314244D01*
X106629Y316767D01*
X106627Y316769D01*
X106628Y316769D01*
X106627Y316769D01*
X106628Y316771D01*
X105922Y319195D01*
X105919Y319197D01*
X105920Y319199D01*
X104493Y321279D01*
X104491Y321279D01*
X104491Y321281D01*
X102586Y322791D01*
X102584Y322791D01*
X102583Y322793D01*
X100306Y323638D01*
X100303Y323637D01*
X100302Y323639D01*
X97875Y323796D01*
X97874Y323795D01*
X97872Y323796D01*
X95272Y323300D01*
X95270Y323298D01*
X95268Y323299D01*
X92969Y321989D01*
X92968Y321986D01*
X92966Y321986D01*
X92432Y321274D01*
X92433Y321262D01*
X92433Y321259D01*
X93449Y320064D01*
X94497Y318901D01*
X94513Y318899D01*
X95217Y319406D01*
X96601Y320234D01*
X98174Y320577D01*
X100121Y320327D01*
X101735Y319213D01*
X102903Y317012D01*
X102924Y314517D01*
X101804Y312290D01*
X100294Y311175D01*
X98448Y310816D01*
X96641Y311130D01*
X95062Y312078D01*
X94375Y312606D01*
X94359Y312605D01*
X93329Y311573D01*
X93329Y311572D01*
X92299Y310423D01*
X92299Y310407D01*
X92300Y310407D01*
X92300Y310406D01*
X94007Y308840D01*
X94010Y308840D01*
X94010Y308838D01*
X95837Y308006D01*
X95839Y308007D01*
X95840Y308005D01*
X97816Y307627D01*
X97818Y307628D01*
X97819Y307626D01*
X99830Y307666D01*
G37*
%LPC*%
G36*
X141229Y310943D02*
X141229Y310943D01*
X140851Y310955D01*
X140677Y310960D01*
X140441Y310968D01*
X140069Y310980D01*
X140068Y310980D01*
X139696Y310992D01*
X139324Y311003D01*
X139323Y311003D01*
X138952Y311015D01*
X138951Y311015D01*
X138934Y311016D01*
X136769Y312455D01*
X135792Y314456D01*
X135747Y316680D01*
X136641Y318715D01*
X138349Y320138D01*
X140365Y320604D01*
X140675Y320538D01*
X142392Y320168D01*
X144014Y318883D01*
X144978Y316709D01*
X144879Y314333D01*
X143714Y312264D01*
X141519Y310934D01*
X141229Y310943D01*
G37*
%LPD*%
G36*
X155360Y307920D02*
X155360Y307920D01*
X155359Y307920D01*
X155360Y307921D01*
X155360Y323494D01*
X155350Y323506D01*
X155349Y323505D01*
X155348Y323506D01*
X151934Y323506D01*
X151923Y323495D01*
X151923Y323494D01*
X151923Y307921D01*
X151933Y307909D01*
X151934Y307910D01*
X151934Y307909D01*
X155348Y307909D01*
X155360Y307920D01*
G37*
G36*
X129440Y307920D02*
X129440Y307920D01*
X129439Y307920D01*
X129440Y307921D01*
X129440Y311442D01*
X129429Y311453D01*
X129428Y311453D01*
X125801Y311453D01*
X125789Y311443D01*
X125789Y311442D01*
X125789Y307921D01*
X125799Y307909D01*
X125800Y307910D01*
X125801Y307909D01*
X129428Y307909D01*
X129440Y307920D01*
G37*
D10*
X220726Y303792D02*
X214625Y303792D01*
X214625Y302267D01*
X220726Y296165D01*
X220726Y294640D01*
X214625Y294640D01*
X211371Y300741D02*
X209846Y300741D01*
X209846Y294640D01*
X211371Y294640D02*
X208320Y294640D01*
X209846Y303792D02*
X209846Y305317D01*
X203609Y294640D02*
X200558Y294640D01*
X199033Y296165D01*
X199033Y299216D01*
X200558Y300741D01*
X203609Y300741D01*
X205134Y299216D01*
X205134Y296165D01*
X203609Y294640D01*
X186424Y296165D02*
X186424Y302267D01*
X184898Y303792D01*
X181848Y303792D01*
X180322Y302267D01*
X180322Y296165D01*
X181848Y294640D01*
X184898Y294640D01*
X186424Y296165D01*
X183373Y297691D02*
X180322Y294640D01*
X177068Y296165D02*
X177068Y300741D01*
X177068Y296165D02*
X175543Y294640D01*
X174018Y296165D01*
X172493Y294640D01*
X170967Y296165D01*
X170967Y300741D01*
X167713Y300741D02*
X166188Y300741D01*
X166188Y294640D01*
X167713Y294640D02*
X164663Y294640D01*
X166188Y303792D02*
X166188Y305317D01*
X161477Y300741D02*
X159951Y300741D01*
X159951Y294640D01*
X158426Y294640D02*
X161477Y294640D01*
X159951Y303792D02*
X159951Y305317D01*
X153714Y300741D02*
X149139Y300741D01*
X153714Y300741D02*
X155240Y299216D01*
X155240Y296165D01*
X153714Y294640D01*
X149139Y294640D01*
X136529Y294640D02*
X136529Y303792D01*
X136529Y294640D02*
X130428Y294640D01*
X125649Y294640D02*
X122598Y294640D01*
X121073Y296165D01*
X121073Y299216D01*
X122598Y300741D01*
X125649Y300741D01*
X127174Y299216D01*
X127174Y296165D01*
X125649Y294640D01*
X117819Y294640D02*
X117819Y303792D01*
X113243Y303792D01*
X111718Y302267D01*
X111718Y299216D01*
X113243Y297691D01*
X117819Y297691D01*
X114768Y297691D02*
X111718Y294640D01*
X106939Y300741D02*
X103888Y300741D01*
X102363Y299216D01*
X102363Y294640D01*
X106939Y294640D01*
X108464Y296165D01*
X106939Y297691D01*
X102363Y297691D01*
X89753Y294640D02*
X89753Y303792D01*
X86703Y300741D01*
X83652Y303792D01*
X83652Y294640D01*
X78873Y294640D02*
X75822Y294640D01*
X74297Y296165D01*
X74297Y299216D01*
X75822Y300741D01*
X78873Y300741D01*
X80398Y299216D01*
X80398Y296165D01*
X78873Y294640D01*
X64942Y294640D02*
X64942Y303792D01*
X64942Y294640D02*
X69518Y294640D01*
X71043Y296165D01*
X71043Y299216D01*
X69518Y300741D01*
X64942Y300741D01*
X61688Y300741D02*
X61688Y296165D01*
X60163Y294640D01*
X55587Y294640D01*
X55587Y300741D01*
X52333Y303792D02*
X50807Y303792D01*
X50807Y294640D01*
X49282Y294640D02*
X52333Y294640D01*
X44571Y294640D02*
X41520Y294640D01*
X44571Y294640D02*
X46096Y296165D01*
X46096Y299216D01*
X44571Y300741D01*
X41520Y300741D01*
X39995Y299216D01*
X39995Y297691D01*
X46096Y297691D01*
X214625Y287027D02*
X216150Y288552D01*
X219201Y288552D01*
X220726Y287027D01*
X220726Y285501D01*
X219201Y283976D01*
X216150Y283976D01*
X214625Y282451D01*
X214625Y280925D01*
X216150Y279400D01*
X219201Y279400D01*
X220726Y280925D01*
X211371Y288552D02*
X205270Y279400D01*
X211371Y279400D02*
X205270Y288552D01*
X202016Y285501D02*
X198965Y288552D01*
X198965Y279400D01*
X202016Y279400D02*
X195914Y279400D01*
X192660Y279400D02*
X186559Y279400D01*
X192660Y279400D02*
X186559Y285501D01*
X186559Y287027D01*
X188085Y288552D01*
X191135Y288552D01*
X192660Y287027D01*
X183305Y288552D02*
X177204Y288552D01*
X177204Y287027D01*
X183305Y280925D01*
X183305Y279400D01*
X170899Y287027D02*
X167849Y288552D01*
X170899Y287027D02*
X173950Y283976D01*
X173950Y280925D01*
X172425Y279400D01*
X169374Y279400D01*
X167849Y280925D01*
X167849Y282451D01*
X169374Y283976D01*
X173950Y283976D01*
X219201Y264160D02*
X220726Y265685D01*
X219201Y264160D02*
X216150Y264160D01*
X214625Y265685D01*
X214625Y271787D01*
X216150Y273312D01*
X219201Y273312D01*
X220726Y271787D01*
X220726Y270261D01*
X219201Y268736D01*
X214625Y268736D01*
X211371Y270261D02*
X208320Y273312D01*
X208320Y264160D01*
X205270Y264160D02*
X211371Y264160D01*
X202016Y273312D02*
X195914Y273312D01*
X202016Y273312D02*
X202016Y268736D01*
X198965Y270261D01*
X197440Y270261D01*
X195914Y268736D01*
X195914Y265685D01*
X197440Y264160D01*
X200490Y264160D01*
X202016Y265685D01*
X192660Y264160D02*
X192660Y273312D01*
X189610Y270261D01*
X186559Y273312D01*
X186559Y264160D01*
X183305Y264160D02*
X183305Y273312D01*
X183305Y268736D02*
X177204Y268736D01*
X177204Y273312D02*
X177204Y264160D01*
X173950Y273312D02*
X167849Y273312D01*
X167849Y271787D01*
X173950Y265685D01*
X173950Y264160D01*
X167849Y264160D01*
X37338Y63755D02*
X38863Y62230D01*
X37338Y63755D02*
X37338Y65281D01*
X38863Y66806D01*
X46490Y66806D01*
X46490Y65281D02*
X46490Y68331D01*
X46490Y71585D02*
X37338Y71585D01*
X46490Y71585D02*
X46490Y76161D01*
X44965Y77686D01*
X41914Y77686D01*
X40389Y76161D01*
X40389Y71585D01*
X43439Y80940D02*
X46490Y83991D01*
X37338Y83991D01*
X37338Y80940D02*
X37338Y87042D01*
X86614Y107442D02*
X92715Y107442D01*
X95766Y110493D01*
X92715Y113543D01*
X86614Y113543D01*
X91190Y113543D02*
X91190Y107442D01*
X95766Y116797D02*
X86614Y116797D01*
X86614Y121373D01*
X88139Y122898D01*
X94241Y122898D01*
X95766Y121373D01*
X95766Y116797D01*
X95766Y126152D02*
X86614Y126152D01*
X86614Y130728D01*
X88139Y132254D01*
X94241Y132254D01*
X95766Y130728D01*
X95766Y126152D01*
X95766Y135508D02*
X86614Y135508D01*
X95766Y135508D02*
X95766Y140083D01*
X94241Y141609D01*
X91190Y141609D01*
X89665Y140083D01*
X89665Y135508D01*
X89665Y138558D02*
X86614Y141609D01*
D11*
X14264Y87238D02*
X14264Y61838D01*
X34584Y87238D02*
X34582Y87338D01*
X34576Y87437D01*
X34566Y87537D01*
X34553Y87635D01*
X34535Y87734D01*
X34514Y87831D01*
X34489Y87927D01*
X34460Y88023D01*
X34427Y88117D01*
X34391Y88210D01*
X34351Y88301D01*
X34307Y88391D01*
X34260Y88479D01*
X34210Y88565D01*
X34156Y88649D01*
X34099Y88731D01*
X34039Y88810D01*
X33975Y88888D01*
X33909Y88962D01*
X33840Y89034D01*
X33768Y89103D01*
X33694Y89169D01*
X33616Y89233D01*
X33537Y89293D01*
X33455Y89350D01*
X33371Y89404D01*
X33285Y89454D01*
X33197Y89501D01*
X33107Y89545D01*
X33016Y89585D01*
X32923Y89621D01*
X32829Y89654D01*
X32733Y89683D01*
X32637Y89708D01*
X32540Y89729D01*
X32441Y89747D01*
X32343Y89760D01*
X32243Y89770D01*
X32144Y89776D01*
X32044Y89778D01*
X34584Y61838D02*
X34582Y61738D01*
X34576Y61639D01*
X34566Y61539D01*
X34553Y61441D01*
X34535Y61342D01*
X34514Y61245D01*
X34489Y61149D01*
X34460Y61053D01*
X34427Y60959D01*
X34391Y60866D01*
X34351Y60775D01*
X34307Y60685D01*
X34260Y60597D01*
X34210Y60511D01*
X34156Y60427D01*
X34099Y60345D01*
X34039Y60266D01*
X33975Y60188D01*
X33909Y60114D01*
X33840Y60042D01*
X33768Y59973D01*
X33694Y59907D01*
X33616Y59843D01*
X33537Y59783D01*
X33455Y59726D01*
X33371Y59672D01*
X33285Y59622D01*
X33197Y59575D01*
X33107Y59531D01*
X33016Y59491D01*
X32923Y59455D01*
X32829Y59422D01*
X32733Y59393D01*
X32637Y59368D01*
X32540Y59347D01*
X32441Y59329D01*
X32343Y59316D01*
X32243Y59306D01*
X32144Y59300D01*
X32044Y59298D01*
X16804Y59298D02*
X16704Y59300D01*
X16605Y59306D01*
X16505Y59316D01*
X16407Y59329D01*
X16308Y59347D01*
X16211Y59368D01*
X16115Y59393D01*
X16019Y59422D01*
X15925Y59455D01*
X15832Y59491D01*
X15741Y59531D01*
X15651Y59575D01*
X15563Y59622D01*
X15477Y59672D01*
X15393Y59726D01*
X15311Y59783D01*
X15232Y59843D01*
X15154Y59907D01*
X15080Y59973D01*
X15008Y60042D01*
X14939Y60114D01*
X14873Y60188D01*
X14809Y60266D01*
X14749Y60345D01*
X14692Y60427D01*
X14638Y60511D01*
X14588Y60597D01*
X14541Y60685D01*
X14497Y60775D01*
X14457Y60866D01*
X14421Y60959D01*
X14388Y61053D01*
X14359Y61149D01*
X14334Y61245D01*
X14313Y61342D01*
X14295Y61441D01*
X14282Y61539D01*
X14272Y61639D01*
X14266Y61738D01*
X14264Y61838D01*
X14264Y87238D02*
X14266Y87338D01*
X14272Y87437D01*
X14282Y87537D01*
X14295Y87635D01*
X14313Y87734D01*
X14334Y87831D01*
X14359Y87927D01*
X14388Y88023D01*
X14421Y88117D01*
X14457Y88210D01*
X14497Y88301D01*
X14541Y88391D01*
X14588Y88479D01*
X14638Y88565D01*
X14692Y88649D01*
X14749Y88731D01*
X14809Y88810D01*
X14873Y88888D01*
X14939Y88962D01*
X15008Y89034D01*
X15080Y89103D01*
X15154Y89169D01*
X15232Y89233D01*
X15311Y89293D01*
X15393Y89350D01*
X15477Y89404D01*
X15563Y89454D01*
X15651Y89501D01*
X15741Y89545D01*
X15832Y89585D01*
X15925Y89621D01*
X16019Y89654D01*
X16115Y89683D01*
X16211Y89708D01*
X16308Y89729D01*
X16407Y89747D01*
X16505Y89760D01*
X16605Y89770D01*
X16704Y89776D01*
X16804Y89778D01*
X32044Y89778D01*
X32044Y59298D02*
X16804Y59298D01*
X34584Y61838D02*
X34584Y87238D01*
D12*
X224208Y119052D03*
D13*
X218908Y119052D03*
X214708Y119052D03*
D14*
X206808Y119052D03*
X199208Y119052D03*
D13*
X195108Y119052D03*
X190908Y119052D03*
D15*
X183108Y119052D03*
D16*
X224208Y118852D03*
D17*
X218808Y118852D03*
X214608Y118852D03*
X206808Y118852D03*
D13*
X199108Y118852D03*
D17*
X195208Y118852D03*
X190808Y118852D03*
D14*
X183008Y118852D03*
D18*
X224308Y118652D03*
D17*
X218808Y118652D03*
X214608Y118652D03*
D19*
X206908Y118652D03*
D17*
X199208Y118652D03*
X195208Y118652D03*
X190808Y118652D03*
D20*
X183008Y118652D03*
X224208Y118452D03*
D17*
X218808Y118452D03*
X214608Y118452D03*
D19*
X206908Y118452D03*
D13*
X199308Y118452D03*
D17*
X195208Y118452D03*
X190808Y118452D03*
D21*
X183108Y118452D03*
D22*
X224208Y118252D03*
D17*
X218808Y118252D03*
X214408Y118252D03*
D23*
X206808Y118252D03*
D13*
X199308Y118252D03*
D17*
X195208Y118252D03*
X190808Y118252D03*
D24*
X183008Y118252D03*
D25*
X224308Y118052D03*
D17*
X218808Y118052D03*
X214408Y118052D03*
D23*
X206808Y118052D03*
D17*
X199408Y118052D03*
X195208Y118052D03*
X190808Y118052D03*
D26*
X183108Y118052D03*
D27*
X224308Y117852D03*
D19*
X218908Y117852D03*
D13*
X214308Y117852D03*
D18*
X206908Y117852D03*
D13*
X199508Y117852D03*
D17*
X195208Y117852D03*
X190808Y117852D03*
D28*
X183108Y117852D03*
D29*
X222408Y117652D03*
D17*
X214208Y117652D03*
D18*
X206908Y117652D03*
D13*
X199508Y117652D03*
D17*
X195208Y117652D03*
X190808Y117652D03*
D30*
X183008Y117652D03*
D31*
X222508Y117452D03*
D17*
X214208Y117452D03*
D32*
X206808Y117452D03*
D13*
X199508Y117452D03*
D17*
X195208Y117452D03*
X190808Y117452D03*
D33*
X183008Y117452D03*
D34*
X222608Y117252D03*
D13*
X214108Y117252D03*
D35*
X206908Y117252D03*
D13*
X199708Y117252D03*
D17*
X195208Y117252D03*
X190808Y117252D03*
D36*
X183108Y117252D03*
D34*
X222608Y117052D03*
D13*
X214108Y117052D03*
D35*
X206908Y117052D03*
D13*
X199708Y117052D03*
D17*
X195208Y117052D03*
X190808Y117052D03*
D37*
X183108Y117052D03*
D38*
X222708Y116852D03*
D17*
X214008Y116852D03*
D20*
X206808Y116852D03*
D14*
X199808Y116852D03*
D17*
X195208Y116852D03*
X190808Y116852D03*
D39*
X183008Y116852D03*
D40*
X222808Y116652D03*
D13*
X213908Y116652D03*
D20*
X206808Y116652D03*
D13*
X199908Y116652D03*
D17*
X195208Y116652D03*
X190808Y116652D03*
D41*
X183008Y116652D03*
D40*
X222808Y116452D03*
D13*
X213908Y116452D03*
D42*
X206908Y116452D03*
D13*
X199908Y116452D03*
D17*
X195208Y116452D03*
X190808Y116452D03*
D41*
X183208Y116452D03*
D40*
X222808Y116252D03*
D17*
X213808Y116252D03*
D43*
X206808Y116252D03*
D13*
X199908Y116252D03*
D17*
X195208Y116252D03*
X190808Y116252D03*
D44*
X183308Y116252D03*
D20*
X226408Y116052D03*
D21*
X219708Y116052D03*
D13*
X213708Y116052D03*
D43*
X206808Y116052D03*
D14*
X200008Y116052D03*
D17*
X195208Y116052D03*
X190808Y116052D03*
D20*
X185808Y116052D03*
D14*
X180608Y116052D03*
D35*
X226708Y115852D03*
D42*
X219508Y115852D03*
D13*
X213708Y115852D03*
D43*
X206808Y115852D03*
D13*
X200108Y115852D03*
D17*
X195208Y115852D03*
X190808Y115852D03*
D32*
X186008Y115852D03*
D45*
X180508Y115852D03*
D18*
X226908Y115652D03*
D35*
X219308Y115652D03*
D17*
X213608Y115652D03*
D21*
X206908Y115652D03*
D14*
X200208Y115652D03*
D17*
X195208Y115652D03*
X190808Y115652D03*
D18*
X186308Y115652D03*
D46*
X180508Y115652D03*
D23*
X227008Y115452D03*
D32*
X219208Y115452D03*
D13*
X213508Y115452D03*
D21*
X206908Y115452D03*
D14*
X200208Y115452D03*
D17*
X195208Y115452D03*
X190808Y115452D03*
D23*
X186408Y115452D03*
D12*
X180608Y115452D03*
D23*
X227008Y115252D03*
D18*
X219108Y115252D03*
D13*
X213508Y115252D03*
D47*
X206908Y115252D03*
D13*
X200308Y115252D03*
D17*
X195208Y115252D03*
X190808Y115252D03*
D19*
X186508Y115252D03*
D48*
X180708Y115252D03*
D19*
X227108Y115052D03*
D23*
X219008Y115052D03*
D14*
X213408Y115052D03*
D47*
X206908Y115052D03*
D14*
X200408Y115052D03*
D17*
X195208Y115052D03*
X190808Y115052D03*
X186608Y115052D03*
D19*
X227308Y114852D03*
D23*
X219008Y114852D03*
D13*
X213308Y114852D03*
D49*
X206808Y114852D03*
D14*
X200408Y114852D03*
D17*
X195208Y114852D03*
X190808Y114852D03*
D19*
X186708Y114852D03*
X227308Y114652D03*
D23*
X219008Y114652D03*
D13*
X213308Y114652D03*
D49*
X206808Y114652D03*
D14*
X200608Y114652D03*
D17*
X195208Y114652D03*
X190808Y114652D03*
D19*
X186708Y114652D03*
X227308Y114452D03*
X218908Y114452D03*
D14*
X213208Y114452D03*
D16*
X208408Y114452D03*
D50*
X205308Y114452D03*
D14*
X200608Y114452D03*
D17*
X195208Y114452D03*
X190808Y114452D03*
X186808Y114452D03*
X227408Y114252D03*
D19*
X218908Y114252D03*
D13*
X213108Y114252D03*
D16*
X208608Y114252D03*
D50*
X205308Y114252D03*
D14*
X200608Y114252D03*
D17*
X195208Y114252D03*
X190808Y114252D03*
X186808Y114252D03*
X227408Y114052D03*
D19*
X218908Y114052D03*
D13*
X213108Y114052D03*
D16*
X208608Y114052D03*
D50*
X205108Y114052D03*
X200708Y114052D03*
D17*
X195208Y114052D03*
X190808Y114052D03*
X186808Y114052D03*
X227408Y113852D03*
X218808Y113852D03*
D14*
X213008Y113852D03*
D50*
X208708Y113852D03*
X205108Y113852D03*
D14*
X200808Y113852D03*
D17*
X195208Y113852D03*
X190808Y113852D03*
X186808Y113852D03*
X227408Y113652D03*
X218808Y113652D03*
D13*
X212908Y113652D03*
D50*
X208708Y113652D03*
X205108Y113652D03*
D14*
X200808Y113652D03*
D17*
X195208Y113652D03*
X190808Y113652D03*
X186808Y113652D03*
X227408Y113452D03*
X218808Y113452D03*
D14*
X212808Y113452D03*
D16*
X208808Y113452D03*
X205008Y113452D03*
D50*
X200908Y113452D03*
D17*
X195208Y113452D03*
X190808Y113452D03*
X186808Y113452D03*
X227408Y113252D03*
X218808Y113252D03*
D14*
X212808Y113252D03*
D16*
X208808Y113252D03*
D50*
X204908Y113252D03*
D14*
X201008Y113252D03*
D17*
X195208Y113252D03*
X190808Y113252D03*
X186808Y113252D03*
X227408Y113052D03*
X218808Y113052D03*
D14*
X212808Y113052D03*
D16*
X209008Y113052D03*
D50*
X204908Y113052D03*
X201108Y113052D03*
D17*
X195208Y113052D03*
X190808Y113052D03*
X186808Y113052D03*
X227408Y112852D03*
D19*
X218908Y112852D03*
D13*
X212708Y112852D03*
D16*
X209008Y112852D03*
D50*
X204708Y112852D03*
X201108Y112852D03*
D17*
X195208Y112852D03*
X190808Y112852D03*
X186808Y112852D03*
X227408Y112652D03*
D19*
X218908Y112652D03*
D14*
X212608Y112652D03*
D16*
X209008Y112652D03*
D50*
X204708Y112652D03*
X201108Y112652D03*
D17*
X195208Y112652D03*
X190808Y112652D03*
X186808Y112652D03*
D19*
X227308Y112452D03*
X218908Y112452D03*
D14*
X212608Y112452D03*
D16*
X209008Y112452D03*
D50*
X204708Y112452D03*
D14*
X201208Y112452D03*
D17*
X195208Y112452D03*
X190808Y112452D03*
D19*
X186708Y112452D03*
X227308Y112252D03*
D23*
X219008Y112252D03*
D14*
X212408Y112252D03*
D16*
X209208Y112252D03*
D50*
X204708Y112252D03*
X201308Y112252D03*
D17*
X195208Y112252D03*
X190808Y112252D03*
D19*
X186708Y112252D03*
X227308Y112052D03*
D23*
X219008Y112052D03*
D25*
X210908Y112052D03*
X202908Y112052D03*
D17*
X195208Y112052D03*
X190808Y112052D03*
D19*
X186508Y112052D03*
D51*
X180608Y112052D03*
D19*
X227108Y111852D03*
D23*
X219008Y111852D03*
D25*
X210908Y111852D03*
D49*
X203008Y111852D03*
D17*
X195208Y111852D03*
X190808Y111852D03*
D19*
X186508Y111852D03*
D52*
X180508Y111852D03*
D23*
X227008Y111652D03*
D18*
X219108Y111652D03*
D47*
X210908Y111652D03*
X202908Y111652D03*
D17*
X195208Y111652D03*
X190808Y111652D03*
D23*
X186408Y111652D03*
D53*
X180408Y111652D03*
D23*
X227008Y111452D03*
D32*
X219208Y111452D03*
D47*
X210908Y111452D03*
X202908Y111452D03*
D17*
X195208Y111452D03*
X190808Y111452D03*
D18*
X186308Y111452D03*
D54*
X180308Y111452D03*
D18*
X226908Y111252D03*
D35*
X219308Y111252D03*
D47*
X210908Y111252D03*
D22*
X203008Y111252D03*
D17*
X195208Y111252D03*
X190808Y111252D03*
D32*
X186008Y111252D03*
D16*
X180408Y111252D03*
D32*
X226608Y111052D03*
D20*
X219408Y111052D03*
D21*
X210908Y111052D03*
D22*
X203008Y111052D03*
D17*
X195208Y111052D03*
X190808Y111052D03*
D41*
X183408Y111052D03*
D35*
X226508Y110852D03*
D43*
X219608Y110852D03*
D21*
X210908Y110852D03*
X202908Y110852D03*
D17*
X195208Y110852D03*
X190808Y110852D03*
D41*
X183208Y110852D03*
D43*
X226008Y110652D03*
D49*
X220008Y110652D03*
D43*
X210808Y110652D03*
X203008Y110652D03*
D17*
X195208Y110652D03*
X190808Y110652D03*
D55*
X183108Y110652D03*
D40*
X222808Y110452D03*
D42*
X210908Y110452D03*
D43*
X203008Y110452D03*
D17*
X195208Y110452D03*
X190808Y110452D03*
D44*
X183108Y110452D03*
D40*
X222808Y110252D03*
D42*
X210908Y110252D03*
D20*
X203008Y110252D03*
D17*
X195208Y110252D03*
X190808Y110252D03*
D39*
X183008Y110252D03*
D38*
X222708Y110052D03*
D20*
X210808Y110052D03*
X203008Y110052D03*
D17*
X195208Y110052D03*
X190808Y110052D03*
D56*
X183008Y110052D03*
D34*
X222608Y109852D03*
D20*
X210808Y109852D03*
X203008Y109852D03*
D17*
X195208Y109852D03*
X190808Y109852D03*
D33*
X183008Y109852D03*
D31*
X222508Y109652D03*
D35*
X210908Y109652D03*
D32*
X203008Y109652D03*
D17*
X195208Y109652D03*
X190808Y109652D03*
D30*
X183008Y109652D03*
D29*
X222408Y109452D03*
D32*
X210808Y109452D03*
X203008Y109452D03*
D17*
X195208Y109452D03*
X190808Y109452D03*
D57*
X183008Y109452D03*
D58*
X222308Y109252D03*
D18*
X210908Y109252D03*
D32*
X203008Y109252D03*
D17*
X195208Y109252D03*
X190808Y109252D03*
D59*
X183008Y109252D03*
D24*
X224208Y109052D03*
D19*
X218908Y109052D03*
D23*
X210808Y109052D03*
D18*
X203108Y109052D03*
D17*
X195208Y109052D03*
X190808Y109052D03*
D24*
X183008Y109052D03*
D49*
X224208Y108852D03*
D17*
X218808Y108852D03*
D23*
X210808Y108852D03*
X203008Y108852D03*
D17*
X195208Y108852D03*
X190808Y108852D03*
D49*
X183008Y108852D03*
D22*
X224208Y108652D03*
D17*
X218808Y108652D03*
D23*
X210808Y108652D03*
D19*
X203108Y108652D03*
D17*
X195208Y108652D03*
X190808Y108652D03*
D42*
X183108Y108652D03*
D20*
X224208Y108452D03*
D17*
X218808Y108452D03*
X210808Y108452D03*
D19*
X203108Y108452D03*
D17*
X195208Y108452D03*
X190808Y108452D03*
X183008Y108452D03*
D23*
X224208Y108252D03*
D17*
X218808Y108252D03*
X210808Y108252D03*
X203008Y108252D03*
D13*
X195108Y108252D03*
D17*
X190808Y108252D03*
D54*
X183108Y108252D03*
D16*
X224208Y108052D03*
D17*
X218808Y108052D03*
D52*
X224108Y107852D03*
D17*
X218808Y107852D03*
X218808Y107652D03*
X218808Y107452D03*
X218808Y107252D03*
X218808Y107052D03*
X218808Y106852D03*
X218808Y106652D03*
X218808Y106452D03*
X218808Y106252D03*
X218808Y106052D03*
X218808Y105852D03*
X218808Y105652D03*
D18*
X203108Y105652D03*
D17*
X218808Y105452D03*
D60*
X203108Y105452D03*
D17*
X218808Y105252D03*
D55*
X203108Y105252D03*
D17*
X218808Y105052D03*
D61*
X203108Y105052D03*
D17*
X218808Y104852D03*
D62*
X203108Y104852D03*
D17*
X218808Y104652D03*
D63*
X203108Y104652D03*
D17*
X218808Y104452D03*
D64*
X203008Y104452D03*
D13*
X218908Y104252D03*
D65*
X203108Y104252D03*
D66*
X203108Y104052D03*
D67*
X203108Y103852D03*
D68*
X203108Y103652D03*
D69*
X203108Y103452D03*
D70*
X203008Y103252D03*
D71*
X203108Y103052D03*
D72*
X203108Y102852D03*
D73*
X203008Y102652D03*
D74*
X203008Y102452D03*
D75*
X203108Y102252D03*
D76*
X203008Y102052D03*
D77*
X203008Y101852D03*
D78*
X203008Y101652D03*
D79*
X203008Y101452D03*
D80*
X203008Y101252D03*
D81*
X203108Y101052D03*
D82*
X203008Y100852D03*
D83*
X203008Y100652D03*
D84*
X203108Y100452D03*
D85*
X203008Y100252D03*
D86*
X203008Y100052D03*
D87*
X203008Y99852D03*
D88*
X203108Y99652D03*
D89*
X203108Y99452D03*
D90*
X203108Y99252D03*
D91*
X203108Y99052D03*
D92*
X203108Y98852D03*
D93*
X203108Y98652D03*
D94*
X203008Y98452D03*
D95*
X203108Y98252D03*
D96*
X203108Y98052D03*
D97*
X203108Y97852D03*
D98*
X203108Y97652D03*
D99*
X203108Y97452D03*
D100*
X203108Y97252D03*
D101*
X203108Y97052D03*
D102*
X203008Y96852D03*
D103*
X203008Y96652D03*
D104*
X203108Y96452D03*
D105*
X203108Y96252D03*
D106*
X203108Y96052D03*
D107*
X203008Y95852D03*
D108*
X203108Y95652D03*
D109*
X203108Y95452D03*
D110*
X203108Y95252D03*
D111*
X203008Y95052D03*
D112*
X203108Y94852D03*
D113*
X203008Y94652D03*
D114*
X203008Y94452D03*
D115*
X203108Y94252D03*
D116*
X203008Y94052D03*
D117*
X203008Y93852D03*
D118*
X203108Y93652D03*
D119*
X203008Y93452D03*
D120*
X203108Y93252D03*
D121*
X203008Y93052D03*
D122*
X203108Y92852D03*
D123*
X203108Y92652D03*
X203108Y92452D03*
D124*
X203008Y92252D03*
D125*
X203008Y92052D03*
D126*
X203108Y91852D03*
X203108Y91652D03*
D127*
X203108Y91452D03*
D128*
X203008Y91252D03*
X203008Y91052D03*
D129*
X203108Y90852D03*
D130*
X203008Y90652D03*
D131*
X203108Y90452D03*
D132*
X203008Y90252D03*
X203008Y90052D03*
D133*
X203108Y89852D03*
D134*
X203008Y89652D03*
D135*
X203108Y89452D03*
X203108Y89252D03*
D136*
X203008Y89052D03*
D137*
X203108Y88852D03*
D138*
X203008Y88652D03*
X203008Y88452D03*
D139*
X203108Y88252D03*
X203108Y88052D03*
D49*
X223808Y87852D03*
D24*
X182408Y87852D03*
D49*
X224008Y87652D03*
D25*
X182308Y87652D03*
D47*
X224108Y87452D03*
D25*
X182308Y87452D03*
D47*
X224108Y87252D03*
D25*
X182308Y87252D03*
D47*
X224108Y87052D03*
D24*
X182208Y87052D03*
D49*
X224208Y86852D03*
D24*
X182208Y86852D03*
D49*
X224208Y86652D03*
D24*
X182208Y86652D03*
D49*
X224208Y86452D03*
D27*
X182108Y86452D03*
D49*
X224208Y86252D03*
D27*
X182108Y86252D03*
D25*
X224308Y86052D03*
D27*
X182108Y86052D03*
D25*
X224308Y85852D03*
D27*
X182108Y85852D03*
D25*
X224308Y85652D03*
D27*
X182108Y85652D03*
D25*
X224308Y85452D03*
D27*
X182108Y85452D03*
D25*
X224308Y85252D03*
D140*
X182008Y85252D03*
D24*
X224408Y85052D03*
D140*
X182008Y85052D03*
D24*
X224408Y84852D03*
D140*
X182008Y84852D03*
D24*
X224408Y84652D03*
D140*
X182008Y84652D03*
D24*
X224408Y84452D03*
D140*
X182008Y84452D03*
D24*
X224408Y84252D03*
D26*
X181908Y84252D03*
D24*
X224408Y84052D03*
D26*
X181908Y84052D03*
D24*
X224408Y83852D03*
D26*
X181908Y83852D03*
D24*
X224408Y83652D03*
D26*
X181908Y83652D03*
D24*
X224408Y83452D03*
D26*
X181908Y83452D03*
D24*
X224408Y83252D03*
D26*
X181908Y83252D03*
D27*
X224508Y83052D03*
D35*
X214108Y83052D03*
D20*
X207008Y83052D03*
X199808Y83052D03*
D35*
X192708Y83052D03*
D26*
X181908Y83052D03*
D27*
X224508Y82852D03*
D20*
X214208Y82852D03*
X207008Y82852D03*
D42*
X199708Y82852D03*
D20*
X192608Y82852D03*
D26*
X181908Y82852D03*
D27*
X224508Y82652D03*
D20*
X214208Y82652D03*
X207008Y82652D03*
D42*
X199708Y82652D03*
D20*
X192608Y82652D03*
D26*
X181908Y82652D03*
D27*
X224508Y82452D03*
D20*
X214208Y82452D03*
X207008Y82452D03*
D42*
X199708Y82452D03*
D20*
X192608Y82452D03*
D26*
X181908Y82452D03*
D27*
X224508Y82252D03*
D20*
X214208Y82252D03*
X207008Y82252D03*
D42*
X199708Y82252D03*
D20*
X192608Y82252D03*
D26*
X181908Y82252D03*
D27*
X224508Y82052D03*
D20*
X214208Y82052D03*
X207008Y82052D03*
D42*
X199708Y82052D03*
D20*
X192608Y82052D03*
D26*
X181908Y82052D03*
D27*
X224508Y81852D03*
D20*
X214208Y81852D03*
X207008Y81852D03*
D42*
X199708Y81852D03*
D20*
X192608Y81852D03*
D26*
X181908Y81852D03*
D27*
X224508Y81652D03*
D20*
X214208Y81652D03*
X207008Y81652D03*
D42*
X199708Y81652D03*
D20*
X192608Y81652D03*
D59*
X181808Y81652D03*
D27*
X224508Y81452D03*
D20*
X214208Y81452D03*
X207008Y81452D03*
D42*
X199708Y81452D03*
D20*
X192608Y81452D03*
D59*
X181808Y81452D03*
D27*
X224508Y81252D03*
D20*
X214208Y81252D03*
X207008Y81252D03*
D42*
X199708Y81252D03*
D20*
X192608Y81252D03*
D59*
X181808Y81252D03*
D27*
X224508Y81052D03*
D20*
X214208Y81052D03*
X207008Y81052D03*
D42*
X199708Y81052D03*
D20*
X192608Y81052D03*
D59*
X181808Y81052D03*
D27*
X224508Y80852D03*
D20*
X214208Y80852D03*
X207008Y80852D03*
D42*
X199708Y80852D03*
D20*
X192608Y80852D03*
D59*
X181808Y80852D03*
D27*
X224508Y80652D03*
D20*
X214208Y80652D03*
X207008Y80652D03*
D42*
X199708Y80652D03*
D20*
X192608Y80652D03*
D59*
X181808Y80652D03*
D27*
X224508Y80452D03*
D20*
X214208Y80452D03*
X207008Y80452D03*
D42*
X199708Y80452D03*
D20*
X192608Y80452D03*
D59*
X181808Y80452D03*
D27*
X224508Y80252D03*
D20*
X214208Y80252D03*
X207008Y80252D03*
D42*
X199708Y80252D03*
D20*
X192608Y80252D03*
D59*
X181808Y80252D03*
D27*
X224508Y80052D03*
D20*
X214208Y80052D03*
X207008Y80052D03*
D42*
X199708Y80052D03*
D20*
X192608Y80052D03*
D26*
X181908Y80052D03*
D27*
X224508Y79852D03*
D20*
X214208Y79852D03*
X207008Y79852D03*
D42*
X199708Y79852D03*
D20*
X192608Y79852D03*
D26*
X181908Y79852D03*
D27*
X224508Y79652D03*
D20*
X214208Y79652D03*
X207008Y79652D03*
D42*
X199708Y79652D03*
D20*
X192608Y79652D03*
D26*
X181908Y79652D03*
D27*
X224508Y79452D03*
D20*
X214208Y79452D03*
X207008Y79452D03*
D42*
X199708Y79452D03*
D20*
X192608Y79452D03*
D26*
X181908Y79452D03*
D27*
X224508Y79252D03*
D20*
X214208Y79252D03*
X207008Y79252D03*
D42*
X199708Y79252D03*
D20*
X192608Y79252D03*
D26*
X181908Y79252D03*
D27*
X224508Y79052D03*
D20*
X214208Y79052D03*
X207008Y79052D03*
D42*
X199708Y79052D03*
D20*
X192608Y79052D03*
D26*
X181908Y79052D03*
D27*
X224508Y78852D03*
D20*
X214208Y78852D03*
X207008Y78852D03*
D42*
X199708Y78852D03*
D20*
X192608Y78852D03*
D26*
X181908Y78852D03*
D24*
X224408Y78652D03*
D20*
X214208Y78652D03*
X207008Y78652D03*
D42*
X199708Y78652D03*
D20*
X192608Y78652D03*
D26*
X181908Y78652D03*
D24*
X224408Y78452D03*
D35*
X214108Y78452D03*
D20*
X207008Y78452D03*
X199808Y78452D03*
D35*
X192708Y78452D03*
D26*
X181908Y78452D03*
D24*
X224408Y78252D03*
D26*
X181908Y78252D03*
D24*
X224408Y78052D03*
D26*
X181908Y78052D03*
D24*
X224408Y77852D03*
D26*
X181908Y77852D03*
D24*
X224408Y77652D03*
D26*
X181908Y77652D03*
D24*
X224408Y77452D03*
D26*
X181908Y77452D03*
D24*
X224408Y77252D03*
D140*
X182008Y77252D03*
D24*
X224408Y77052D03*
D140*
X182008Y77052D03*
D24*
X224408Y76852D03*
D140*
X182008Y76852D03*
D25*
X224308Y76652D03*
D140*
X182008Y76652D03*
D25*
X224308Y76452D03*
D27*
X182108Y76452D03*
D25*
X224308Y76252D03*
D27*
X182108Y76252D03*
D25*
X224308Y76052D03*
D27*
X182108Y76052D03*
D25*
X224308Y75852D03*
D27*
X182108Y75852D03*
D49*
X224208Y75652D03*
D27*
X182108Y75652D03*
D49*
X224208Y75452D03*
D27*
X182108Y75452D03*
D49*
X224208Y75252D03*
D24*
X182208Y75252D03*
D49*
X224208Y75052D03*
D24*
X182208Y75052D03*
D47*
X224108Y74852D03*
D24*
X182208Y74852D03*
D47*
X224108Y74652D03*
D24*
X182208Y74652D03*
D47*
X224108Y74452D03*
D25*
X182308Y74452D03*
D47*
X224108Y74252D03*
D25*
X182308Y74252D03*
D22*
X224008Y74052D03*
D25*
X182308Y74052D03*
D22*
X224008Y73852D03*
D49*
X182408Y73852D03*
D47*
X223908Y73652D03*
D25*
X182508Y73652D03*
D141*
X219208Y73452D03*
D27*
X203508Y73452D03*
D142*
X187308Y73452D03*
D141*
X219208Y73252D03*
D27*
X203508Y73252D03*
D142*
X187308Y73252D03*
D141*
X219208Y73052D03*
D27*
X203508Y73052D03*
D143*
X187408Y73052D03*
D141*
X219208Y72852D03*
D140*
X203408Y72852D03*
D144*
X187308Y72852D03*
D63*
X219108Y72652D03*
D140*
X203408Y72652D03*
D145*
X187408Y72652D03*
D141*
X219008Y72452D03*
D140*
X203408Y72452D03*
D145*
X187408Y72452D03*
D63*
X218908Y72252D03*
D140*
X203408Y72252D03*
D145*
X187408Y72252D03*
D63*
X218908Y72052D03*
D26*
X203308Y72052D03*
D146*
X187308Y72052D03*
D63*
X218908Y71852D03*
D140*
X203208Y71852D03*
D141*
X187408Y71852D03*
D147*
X218808Y71652D03*
D140*
X203208Y71652D03*
D63*
X187308Y71652D03*
D147*
X218808Y71452D03*
D140*
X203208Y71452D03*
D147*
X187408Y71452D03*
X218608Y71252D03*
D26*
X203108Y71252D03*
D147*
X187408Y71252D03*
X218608Y71052D03*
D26*
X203108Y71052D03*
D148*
X187408Y71052D03*
D149*
X218508Y70852D03*
D140*
X203008Y70852D03*
D148*
X187408Y70852D03*
D149*
X218508Y70652D03*
D26*
X202908Y70652D03*
D150*
X187308Y70652D03*
D149*
X218508Y70452D03*
D26*
X202908Y70452D03*
D151*
X187408Y70452D03*
D148*
X218408Y70252D03*
D26*
X202908Y70252D03*
D152*
X187408Y70252D03*
D149*
X218308Y70052D03*
D26*
X202708Y70052D03*
D152*
X187408Y70052D03*
D148*
X218208Y69852D03*
D26*
X202708Y69852D03*
D153*
X187308Y69852D03*
D148*
X218208Y69652D03*
D26*
X202708Y69652D03*
D154*
X187308Y69652D03*
D150*
X218108Y69452D03*
D59*
X202608Y69452D03*
D154*
X187308Y69452D03*
D148*
X218008Y69252D03*
D26*
X202508Y69252D03*
D155*
X187308Y69252D03*
D150*
X217908Y69052D03*
D59*
X202408Y69052D03*
D156*
X187408Y69052D03*
D151*
X217808Y68852D03*
D59*
X202408Y68852D03*
D61*
X187308Y68852D03*
D151*
X217808Y68652D03*
D59*
X202208Y68652D03*
D38*
X187308Y68652D03*
D151*
X217608Y68452D03*
D59*
X202208Y68452D03*
D38*
X187308Y68452D03*
D151*
X217608Y68252D03*
D28*
X202108Y68252D03*
D31*
X187308Y68252D03*
D62*
X217508Y68052D03*
D59*
X202008Y68052D03*
D29*
X187208Y68052D03*
D152*
X217408Y67852D03*
D28*
X201908Y67852D03*
D157*
X187208Y67852D03*
D62*
X217308Y67652D03*
D28*
X201908Y67652D03*
D158*
X187308Y67652D03*
D152*
X217208Y67452D03*
D28*
X201708Y67452D03*
D159*
X187208Y67452D03*
D62*
X217108Y67252D03*
D28*
X201708Y67252D03*
D41*
X187208Y67252D03*
D152*
X217008Y67052D03*
D28*
X201508Y67052D03*
D39*
X187208Y67052D03*
D153*
X216908Y66852D03*
D57*
X201408Y66852D03*
D37*
X187108Y66852D03*
D153*
X216908Y66652D03*
D57*
X201408Y66652D03*
D36*
X187108Y66652D03*
D153*
X216708Y66452D03*
D57*
X201208Y66452D03*
D60*
X187108Y66452D03*
D160*
X216608Y66252D03*
D57*
X201208Y66252D03*
D30*
X187008Y66252D03*
D160*
X216408Y66052D03*
D57*
X201008Y66052D03*
X187008Y66052D03*
D160*
X216408Y65852D03*
D161*
X200908Y65852D03*
D26*
X186908Y65852D03*
D154*
X216308Y65652D03*
D161*
X200708Y65652D03*
D27*
X186908Y65652D03*
D154*
X216108Y65452D03*
D161*
X200708Y65452D03*
D24*
X186808Y65452D03*
D154*
X216108Y65252D03*
D161*
X200508Y65252D03*
D49*
X186808Y65252D03*
D155*
X215908Y65052D03*
D30*
X200408Y65052D03*
D21*
X186708Y65052D03*
D162*
X215808Y64852D03*
D30*
X200208Y64852D03*
D20*
X186608Y64852D03*
D155*
X215708Y64652D03*
D30*
X200208Y64652D03*
D32*
X186608Y64652D03*
D155*
X215508Y64452D03*
D30*
X200008Y64452D03*
D19*
X186508Y64452D03*
D156*
X215408Y64252D03*
D60*
X199908Y64252D03*
D14*
X186408Y64252D03*
D156*
X215208Y64052D03*
D60*
X199708Y64052D03*
D16*
X186208Y64052D03*
D61*
X215108Y63852D03*
D33*
X199608Y63852D03*
D54*
X186108Y63852D03*
D61*
X214908Y63652D03*
D33*
X199408Y63652D03*
D15*
X185908Y63652D03*
D40*
X214808Y63452D03*
D33*
X199208Y63452D03*
D163*
X185908Y63452D03*
D40*
X214608Y63252D03*
D36*
X199108Y63252D03*
D38*
X214508Y63052D03*
D36*
X198908Y63052D03*
D38*
X214308Y62852D03*
D56*
X198808Y62852D03*
D34*
X214208Y62652D03*
D56*
X198608Y62652D03*
D34*
X214008Y62452D03*
D56*
X198408Y62452D03*
D31*
X213908Y62252D03*
D56*
X198208Y62252D03*
D31*
X213708Y62052D03*
D39*
X198008Y62052D03*
D29*
X213608Y61852D03*
D39*
X197808Y61852D03*
D29*
X213408Y61652D03*
D39*
X197608Y61652D03*
D157*
X213208Y61452D03*
D41*
X197408Y61452D03*
D157*
X213008Y61252D03*
D41*
X197208Y61252D03*
D157*
X212808Y61052D03*
D41*
X197008Y61052D03*
D159*
X212608Y60852D03*
D55*
X196708Y60852D03*
D159*
X212408Y60652D03*
D158*
X196508Y60652D03*
D41*
X212208Y60452D03*
D158*
X196308Y60452D03*
D41*
X212008Y60252D03*
D157*
X196008Y60252D03*
D44*
X211708Y60052D03*
D58*
X195708Y60052D03*
D44*
X211508Y59852D03*
D29*
X195408Y59852D03*
D37*
X211308Y59652D03*
D31*
X195108Y59652D03*
D56*
X211008Y59452D03*
D34*
X194808Y59452D03*
D36*
X210908Y59252D03*
D40*
X194408Y59252D03*
D33*
X210608Y59052D03*
D61*
X194108Y59052D03*
D60*
X210308Y58852D03*
D162*
X193608Y58852D03*
D30*
X210008Y58652D03*
D160*
X193208Y58652D03*
D57*
X209808Y58452D03*
D62*
X192708Y58452D03*
D28*
X209508Y58252D03*
D149*
X192108Y58252D03*
D59*
X209208Y58052D03*
D144*
X191308Y58052D03*
D48*
X182308Y58052D03*
D140*
X208808Y57852D03*
D164*
X189608Y57852D03*
D27*
X208508Y57652D03*
D66*
X189508Y57652D03*
D47*
X208108Y57452D03*
D165*
X189408Y57452D03*
D21*
X207708Y57252D03*
D166*
X189308Y57252D03*
D42*
X207308Y57052D03*
D167*
X189208Y57052D03*
D32*
X206808Y56852D03*
D168*
X189108Y56852D03*
D23*
X206408Y56652D03*
D65*
X188908Y56652D03*
D50*
X205708Y56452D03*
D169*
X188808Y56452D03*
D12*
X205008Y56252D03*
D170*
X188708Y56252D03*
D171*
X188508Y56052D03*
D64*
X188408Y55852D03*
D143*
X188208Y55652D03*
D144*
X188108Y55452D03*
D145*
X188008Y55252D03*
D141*
X187808Y55052D03*
D147*
X187608Y54852D03*
D149*
X187508Y54652D03*
D150*
X187308Y54452D03*
D62*
X187108Y54252D03*
D153*
X186908Y54052D03*
D154*
X186708Y53852D03*
D155*
X186508Y53652D03*
D61*
X186308Y53452D03*
D34*
X186008Y53252D03*
D29*
X185808Y53052D03*
D158*
X185508Y52852D03*
D55*
X185308Y52652D03*
D37*
X184908Y52452D03*
D33*
X184608Y52252D03*
D161*
X184308Y52052D03*
D140*
X183808Y51852D03*
D49*
X183408Y51652D03*
D32*
X182608Y51452D03*
D11*
X82296Y62738D02*
X78486Y71374D01*
X82296Y62738D02*
X84074Y63754D01*
X88646Y60706D01*
X92202Y64262D01*
X89154Y68834D01*
X91186Y73914D02*
X96774Y74930D01*
X96774Y80010D01*
X90932Y81026D01*
X88900Y85852D02*
X92202Y90678D01*
X88646Y94234D01*
X83820Y90932D01*
X79248Y92710D02*
X77978Y98806D01*
X73152Y98806D01*
X71882Y92710D01*
X67310Y90932D02*
X62230Y94234D01*
X58674Y90678D01*
X62230Y85852D01*
X59944Y81026D02*
X54356Y80010D01*
X54356Y74930D01*
X59944Y73914D01*
X61976Y68834D02*
X58674Y64262D01*
X62230Y60706D01*
X66802Y63754D01*
X68834Y62738D01*
X72390Y71374D01*
X72238Y71451D01*
X72089Y71531D01*
X71941Y71615D01*
X71795Y71703D01*
X71652Y71794D01*
X71511Y71889D01*
X71372Y71987D01*
X71235Y72088D01*
X71101Y72193D01*
X70970Y72301D01*
X70842Y72412D01*
X70716Y72526D01*
X70593Y72644D01*
X70473Y72764D01*
X70356Y72887D01*
X70242Y73013D01*
X70131Y73142D01*
X70023Y73274D01*
X69919Y73408D01*
X69818Y73544D01*
X69720Y73683D01*
X69626Y73825D01*
X69535Y73969D01*
X69448Y74114D01*
X69364Y74262D01*
X69284Y74412D01*
X69208Y74564D01*
X69135Y74718D01*
X69067Y74874D01*
X69002Y75031D01*
X68941Y75189D01*
X68884Y75349D01*
X68831Y75511D01*
X68781Y75674D01*
X68736Y75837D01*
X68695Y76002D01*
X68658Y76168D01*
X68625Y76335D01*
X68596Y76502D01*
X68571Y76671D01*
X68551Y76839D01*
X68534Y77008D01*
X68522Y77178D01*
X68513Y77348D01*
X68509Y77518D01*
X68510Y77688D01*
X68514Y77858D01*
X68522Y78027D01*
X68535Y78197D01*
X68552Y78366D01*
X68573Y78535D01*
X68598Y78703D01*
X68627Y78870D01*
X68660Y79037D01*
X68698Y79203D01*
X68739Y79368D01*
X68784Y79531D01*
X68834Y79694D01*
X68887Y79855D01*
X68945Y80015D01*
X69006Y80174D01*
X69071Y80331D01*
X69140Y80486D01*
X69213Y80640D01*
X69289Y80792D01*
X69370Y80941D01*
X69453Y81089D01*
X69541Y81235D01*
X69632Y81379D01*
X69726Y81520D01*
X69824Y81659D01*
X69926Y81795D01*
X70030Y81929D01*
X70138Y82061D01*
X70249Y82189D01*
X70363Y82315D01*
X70481Y82438D01*
X70601Y82558D01*
X70724Y82675D01*
X70850Y82789D01*
X70979Y82900D01*
X71110Y83008D01*
X71244Y83113D01*
X71381Y83214D01*
X71520Y83312D01*
X71661Y83406D01*
X71805Y83497D01*
X71951Y83584D01*
X72099Y83668D01*
X72248Y83748D01*
X72400Y83825D01*
X72554Y83897D01*
X72709Y83966D01*
X72866Y84031D01*
X73025Y84092D01*
X73185Y84150D01*
X73346Y84203D01*
X73509Y84252D01*
X73673Y84297D01*
X73838Y84339D01*
X74004Y84376D01*
X74170Y84409D01*
X74338Y84438D01*
X74506Y84463D01*
X74675Y84484D01*
X74844Y84500D01*
X75013Y84513D01*
X75183Y84521D01*
X75353Y84525D01*
X75523Y84525D01*
X75693Y84521D01*
X75863Y84513D01*
X76032Y84500D01*
X76201Y84484D01*
X76370Y84463D01*
X76538Y84438D01*
X76706Y84409D01*
X76872Y84376D01*
X77038Y84339D01*
X77203Y84297D01*
X77367Y84252D01*
X77530Y84203D01*
X77691Y84150D01*
X77851Y84092D01*
X78010Y84031D01*
X78167Y83966D01*
X78322Y83897D01*
X78476Y83825D01*
X78628Y83748D01*
X78777Y83668D01*
X78925Y83584D01*
X79071Y83497D01*
X79215Y83406D01*
X79356Y83312D01*
X79495Y83214D01*
X79632Y83113D01*
X79766Y83008D01*
X79897Y82900D01*
X80026Y82789D01*
X80152Y82675D01*
X80275Y82558D01*
X80395Y82438D01*
X80513Y82315D01*
X80627Y82189D01*
X80738Y82061D01*
X80846Y81929D01*
X80950Y81795D01*
X81052Y81659D01*
X81150Y81520D01*
X81244Y81379D01*
X81335Y81235D01*
X81423Y81089D01*
X81506Y80941D01*
X81587Y80792D01*
X81663Y80640D01*
X81736Y80486D01*
X81805Y80331D01*
X81870Y80174D01*
X81931Y80015D01*
X81989Y79855D01*
X82042Y79694D01*
X82092Y79531D01*
X82137Y79368D01*
X82178Y79203D01*
X82216Y79037D01*
X82249Y78870D01*
X82278Y78703D01*
X82303Y78535D01*
X82324Y78366D01*
X82341Y78197D01*
X82354Y78027D01*
X82362Y77858D01*
X82366Y77688D01*
X82367Y77518D01*
X82363Y77348D01*
X82354Y77178D01*
X82342Y77008D01*
X82325Y76839D01*
X82305Y76671D01*
X82280Y76502D01*
X82251Y76335D01*
X82218Y76168D01*
X82181Y76002D01*
X82140Y75837D01*
X82095Y75674D01*
X82045Y75511D01*
X81992Y75349D01*
X81935Y75189D01*
X81874Y75031D01*
X81809Y74874D01*
X81741Y74718D01*
X81668Y74564D01*
X81592Y74412D01*
X81512Y74262D01*
X81428Y74114D01*
X81341Y73969D01*
X81250Y73825D01*
X81156Y73683D01*
X81058Y73544D01*
X80957Y73408D01*
X80853Y73274D01*
X80745Y73142D01*
X80634Y73013D01*
X80520Y72887D01*
X80403Y72764D01*
X80283Y72644D01*
X80160Y72526D01*
X80034Y72412D01*
X79906Y72301D01*
X79775Y72193D01*
X79641Y72088D01*
X79504Y71987D01*
X79365Y71889D01*
X79224Y71794D01*
X79081Y71703D01*
X78935Y71615D01*
X78787Y71531D01*
X78638Y71451D01*
X78486Y71374D01*
X89093Y68956D02*
X89285Y69258D01*
X89470Y69563D01*
X89649Y69873D01*
X89820Y70187D01*
X89984Y70505D01*
X90140Y70826D01*
X90289Y71151D01*
X90431Y71479D01*
X90565Y71810D01*
X90691Y72145D01*
X90810Y72482D01*
X90921Y72821D01*
X91024Y73164D01*
X91120Y73508D01*
X90978Y81082D02*
X90883Y81442D01*
X90780Y81800D01*
X90669Y82156D01*
X90549Y82508D01*
X90422Y82858D01*
X90286Y83205D01*
X90142Y83549D01*
X89990Y83889D01*
X89830Y84225D01*
X89662Y84558D01*
X89487Y84887D01*
X89303Y85211D01*
X89113Y85531D01*
X88915Y85847D01*
X83759Y90825D02*
X83436Y91013D01*
X83109Y91192D01*
X82778Y91364D01*
X82443Y91528D01*
X82104Y91685D01*
X81761Y91833D01*
X81415Y91973D01*
X81066Y92105D01*
X80713Y92229D01*
X80358Y92344D01*
X80001Y92451D01*
X79641Y92549D01*
X79278Y92639D01*
X71882Y92746D02*
X71514Y92658D01*
X71148Y92560D01*
X70785Y92455D01*
X70424Y92340D01*
X70067Y92217D01*
X69712Y92085D01*
X69360Y91945D01*
X69012Y91797D01*
X68668Y91640D01*
X68327Y91475D01*
X67990Y91302D01*
X67658Y91121D01*
X67330Y90932D01*
X62103Y85811D02*
X61906Y85520D01*
X61716Y85224D01*
X61533Y84924D01*
X61356Y84619D01*
X61187Y84311D01*
X61025Y83999D01*
X60870Y83683D01*
X60722Y83364D01*
X60582Y83042D01*
X60449Y82716D01*
X60323Y82387D01*
X60206Y82056D01*
X60095Y81722D01*
X59993Y81385D01*
X59898Y81046D01*
X59969Y73934D02*
X60049Y73578D01*
X60137Y73224D01*
X60233Y72873D01*
X60338Y72523D01*
X60450Y72177D01*
X60570Y71833D01*
X60698Y71491D01*
X60834Y71153D01*
X60977Y70818D01*
X61128Y70486D01*
X61287Y70158D01*
X61453Y69834D01*
X61627Y69513D01*
X61808Y69197D01*
X61996Y68885D01*
X119380Y115316D02*
X119380Y132588D01*
X101600Y112776D02*
X101500Y112778D01*
X101401Y112784D01*
X101301Y112794D01*
X101203Y112807D01*
X101104Y112825D01*
X101007Y112846D01*
X100911Y112871D01*
X100815Y112900D01*
X100721Y112933D01*
X100628Y112969D01*
X100537Y113009D01*
X100447Y113053D01*
X100359Y113100D01*
X100273Y113150D01*
X100189Y113204D01*
X100107Y113261D01*
X100028Y113321D01*
X99950Y113385D01*
X99876Y113451D01*
X99804Y113520D01*
X99735Y113592D01*
X99669Y113666D01*
X99605Y113744D01*
X99545Y113823D01*
X99488Y113905D01*
X99434Y113989D01*
X99384Y114075D01*
X99337Y114163D01*
X99293Y114253D01*
X99253Y114344D01*
X99217Y114437D01*
X99184Y114531D01*
X99155Y114627D01*
X99130Y114723D01*
X99109Y114820D01*
X99091Y114919D01*
X99078Y115017D01*
X99068Y115117D01*
X99062Y115216D01*
X99060Y115316D01*
X99060Y132588D02*
X99062Y132688D01*
X99068Y132787D01*
X99078Y132887D01*
X99091Y132985D01*
X99109Y133084D01*
X99130Y133181D01*
X99155Y133277D01*
X99184Y133373D01*
X99217Y133467D01*
X99253Y133560D01*
X99293Y133651D01*
X99337Y133741D01*
X99384Y133829D01*
X99434Y133915D01*
X99488Y133999D01*
X99545Y134081D01*
X99605Y134160D01*
X99669Y134238D01*
X99735Y134312D01*
X99804Y134384D01*
X99876Y134453D01*
X99950Y134519D01*
X100028Y134583D01*
X100107Y134643D01*
X100189Y134700D01*
X100273Y134754D01*
X100359Y134804D01*
X100447Y134851D01*
X100537Y134895D01*
X100628Y134935D01*
X100721Y134971D01*
X100815Y135004D01*
X100911Y135033D01*
X101007Y135058D01*
X101104Y135079D01*
X101203Y135097D01*
X101301Y135110D01*
X101401Y135120D01*
X101500Y135126D01*
X101600Y135128D01*
X116840Y135128D02*
X116940Y135126D01*
X117039Y135120D01*
X117139Y135110D01*
X117237Y135097D01*
X117336Y135079D01*
X117433Y135058D01*
X117529Y135033D01*
X117625Y135004D01*
X117719Y134971D01*
X117812Y134935D01*
X117903Y134895D01*
X117993Y134851D01*
X118081Y134804D01*
X118167Y134754D01*
X118251Y134700D01*
X118333Y134643D01*
X118412Y134583D01*
X118490Y134519D01*
X118564Y134453D01*
X118636Y134384D01*
X118705Y134312D01*
X118771Y134238D01*
X118835Y134160D01*
X118895Y134081D01*
X118952Y133999D01*
X119006Y133915D01*
X119056Y133829D01*
X119103Y133741D01*
X119147Y133651D01*
X119187Y133560D01*
X119223Y133467D01*
X119256Y133373D01*
X119285Y133277D01*
X119310Y133181D01*
X119331Y133084D01*
X119349Y132985D01*
X119362Y132887D01*
X119372Y132787D01*
X119378Y132688D01*
X119380Y132588D01*
X119380Y115316D02*
X119378Y115216D01*
X119372Y115117D01*
X119362Y115017D01*
X119349Y114919D01*
X119331Y114820D01*
X119310Y114723D01*
X119285Y114627D01*
X119256Y114531D01*
X119223Y114437D01*
X119187Y114344D01*
X119147Y114253D01*
X119103Y114163D01*
X119056Y114075D01*
X119006Y113989D01*
X118952Y113905D01*
X118895Y113823D01*
X118835Y113744D01*
X118771Y113666D01*
X118705Y113592D01*
X118636Y113520D01*
X118564Y113451D01*
X118490Y113385D01*
X118412Y113321D01*
X118333Y113261D01*
X118251Y113204D01*
X118167Y113150D01*
X118081Y113100D01*
X117993Y113053D01*
X117903Y113009D01*
X117812Y112969D01*
X117719Y112933D01*
X117625Y112900D01*
X117529Y112871D01*
X117433Y112846D01*
X117336Y112825D01*
X117237Y112807D01*
X117139Y112794D01*
X117039Y112784D01*
X116940Y112778D01*
X116840Y112776D01*
X101600Y112776D01*
X101600Y135128D02*
X116840Y135128D01*
X99060Y132588D02*
X99060Y115316D01*
M02*
