G04 EAGLE Gerber RS-274X export*
G75*
%MOMM*%
%FSLAX34Y34*%
%LPD*%
%INSilkscreen Top*%
%IPPOS*%
%AMOC8*
5,1,8,0,0,1.08239X$1,22.5*%
G01*
%ADD10C,0.076200*%
%ADD11C,0.101600*%
%ADD12C,0.127000*%
%ADD13C,0.203200*%
%ADD14C,0.400000*%
%ADD15C,0.254000*%
%ADD16C,0.200000*%
%ADD17C,0.152400*%


D10*
X33607Y114923D02*
X32379Y113695D01*
X32379Y111237D01*
X33607Y110009D01*
X38522Y110009D01*
X39751Y111237D01*
X39751Y113695D01*
X38522Y114923D01*
X36065Y114923D01*
X36065Y112466D01*
X39751Y117493D02*
X32379Y117493D01*
X39751Y122408D01*
X32379Y122408D01*
X32379Y124977D02*
X39751Y124977D01*
X39751Y128663D01*
X38522Y129892D01*
X33607Y129892D01*
X32379Y128663D01*
X32379Y124977D01*
X30861Y162227D02*
X32090Y163455D01*
X34547Y163455D01*
X35776Y162227D01*
X35776Y160998D01*
X34547Y159769D01*
X33318Y159769D01*
X34547Y159769D02*
X35776Y158540D01*
X35776Y157312D01*
X34547Y156083D01*
X32090Y156083D01*
X30861Y157312D01*
X38345Y158540D02*
X38345Y163455D01*
X38345Y158540D02*
X40803Y156083D01*
X43260Y158540D01*
X43260Y163455D01*
X45829Y162227D02*
X47058Y163455D01*
X49515Y163455D01*
X50744Y162227D01*
X50744Y160998D01*
X49515Y159769D01*
X48287Y159769D01*
X49515Y159769D02*
X50744Y158540D01*
X50744Y157312D01*
X49515Y156083D01*
X47058Y156083D01*
X45829Y157312D01*
X29845Y181737D02*
X29845Y189109D01*
X33531Y189109D01*
X34760Y187881D01*
X34760Y185423D01*
X33531Y184194D01*
X29845Y184194D01*
X32302Y184194D02*
X34760Y181737D01*
X42244Y181737D02*
X37329Y189109D01*
X42244Y189109D02*
X37329Y181737D01*
X44813Y181737D02*
X44813Y189109D01*
X44813Y181737D02*
X48499Y181737D01*
X49728Y182966D01*
X49728Y187881D01*
X48499Y189109D01*
X44813Y189109D01*
X30099Y232537D02*
X30099Y239909D01*
X30099Y232537D02*
X33785Y232537D01*
X35014Y233766D01*
X35014Y238681D01*
X33785Y239909D01*
X30099Y239909D01*
X40041Y239909D02*
X40041Y232537D01*
X37583Y239909D02*
X42498Y239909D01*
X45067Y239909D02*
X45067Y232537D01*
X45067Y239909D02*
X48753Y239909D01*
X49982Y238681D01*
X49982Y236223D01*
X48753Y234994D01*
X45067Y234994D01*
X47525Y234994D02*
X49982Y232537D01*
X209023Y214249D02*
X211481Y214249D01*
X210252Y214249D02*
X210252Y221621D01*
X209023Y221621D02*
X211481Y221621D01*
X214013Y221621D02*
X214013Y214249D01*
X218928Y214249D02*
X214013Y221621D01*
X218928Y221621D02*
X218928Y214249D01*
X223954Y214249D02*
X223954Y221621D01*
X221497Y221621D02*
X226412Y221621D01*
D11*
X74676Y70111D02*
X74676Y64009D01*
X74676Y70111D02*
X76201Y71636D01*
X79252Y71636D01*
X80777Y70111D01*
X80777Y64009D01*
X79252Y62484D01*
X76201Y62484D01*
X74676Y64009D01*
X77727Y65535D02*
X80777Y62484D01*
X84031Y64009D02*
X84031Y68585D01*
X84031Y64009D02*
X85556Y62484D01*
X87082Y64009D01*
X88607Y62484D01*
X90132Y64009D01*
X90132Y68585D01*
X93386Y68585D02*
X94912Y68585D01*
X94912Y62484D01*
X96437Y62484D02*
X93386Y62484D01*
X94912Y71636D02*
X94912Y73161D01*
X99623Y68585D02*
X101148Y68585D01*
X101148Y62484D01*
X99623Y62484D02*
X102674Y62484D01*
X101148Y71636D02*
X101148Y73161D01*
X107385Y68585D02*
X111961Y68585D01*
X107385Y68585D02*
X105860Y67060D01*
X105860Y64009D01*
X107385Y62484D01*
X111961Y62484D01*
X146812Y64009D02*
X146812Y70111D01*
X148337Y71636D01*
X151388Y71636D01*
X152913Y70111D01*
X152913Y64009D01*
X151388Y62484D01*
X148337Y62484D01*
X146812Y64009D01*
X149863Y65535D02*
X152913Y62484D01*
X156167Y64009D02*
X156167Y68585D01*
X156167Y64009D02*
X157692Y62484D01*
X159218Y64009D01*
X160743Y62484D01*
X162268Y64009D01*
X162268Y68585D01*
X165522Y68585D02*
X167048Y68585D01*
X167048Y62484D01*
X168573Y62484D02*
X165522Y62484D01*
X167048Y71636D02*
X167048Y73161D01*
X171759Y68585D02*
X173284Y68585D01*
X173284Y62484D01*
X171759Y62484D02*
X174810Y62484D01*
X173284Y71636D02*
X173284Y73161D01*
X179521Y68585D02*
X184097Y68585D01*
X179521Y68585D02*
X177996Y67060D01*
X177996Y64009D01*
X179521Y62484D01*
X184097Y62484D01*
D10*
X6223Y313563D02*
X6223Y320935D01*
X9909Y320935D01*
X11138Y319707D01*
X11138Y317249D01*
X9909Y316020D01*
X6223Y316020D01*
X13707Y313563D02*
X13707Y318478D01*
X16165Y320935D01*
X18622Y318478D01*
X18622Y313563D01*
X18622Y317249D02*
X13707Y317249D01*
X21191Y313563D02*
X23649Y313563D01*
X22420Y313563D02*
X22420Y320935D01*
X21191Y320935D02*
X23649Y320935D01*
X26181Y320935D02*
X26181Y313563D01*
X26181Y320935D02*
X29867Y320935D01*
X31096Y319707D01*
X31096Y317249D01*
X29867Y316020D01*
X26181Y316020D01*
X28638Y316020D02*
X31096Y313563D01*
X32556Y214763D02*
X32556Y207391D01*
X30099Y214763D02*
X35014Y214763D01*
X37583Y214763D02*
X42498Y207391D01*
X37583Y207391D02*
X42498Y214763D01*
X45067Y214763D02*
X45067Y207391D01*
X48753Y207391D01*
X49982Y208620D01*
X49982Y213535D01*
X48753Y214763D01*
X45067Y214763D01*
X209961Y195459D02*
X211189Y194231D01*
X209961Y195459D02*
X207503Y195459D01*
X206275Y194231D01*
X206275Y189316D01*
X207503Y188087D01*
X209961Y188087D01*
X211189Y189316D01*
X211189Y191773D01*
X208732Y191773D01*
X213759Y188087D02*
X213759Y195459D01*
X218674Y188087D01*
X218674Y195459D01*
X221243Y195459D02*
X221243Y188087D01*
X224929Y188087D01*
X226158Y189316D01*
X226158Y194231D01*
X224929Y195459D01*
X221243Y195459D01*
X207503Y170313D02*
X206275Y169085D01*
X207503Y170313D02*
X209961Y170313D01*
X211189Y169085D01*
X211189Y167856D01*
X209961Y166627D01*
X208732Y166627D01*
X209961Y166627D02*
X211189Y165398D01*
X211189Y164170D01*
X209961Y162941D01*
X207503Y162941D01*
X206275Y164170D01*
X213759Y165398D02*
X213759Y170313D01*
X213759Y165398D02*
X216216Y162941D01*
X218674Y165398D01*
X218674Y170313D01*
X221243Y169085D02*
X222472Y170313D01*
X224929Y170313D01*
X226158Y169085D01*
X226158Y167856D01*
X224929Y166627D01*
X223700Y166627D01*
X224929Y166627D02*
X226158Y165398D01*
X226158Y164170D01*
X224929Y162941D01*
X222472Y162941D01*
X221243Y164170D01*
X209961Y143897D02*
X211189Y142669D01*
X209961Y143897D02*
X207503Y143897D01*
X206275Y142669D01*
X206275Y141440D01*
X207503Y140211D01*
X209961Y140211D01*
X211189Y138982D01*
X211189Y137754D01*
X209961Y136525D01*
X207503Y136525D01*
X206275Y137754D01*
X213759Y136525D02*
X213759Y143897D01*
X213759Y136525D02*
X217445Y136525D01*
X218674Y137754D01*
X218674Y142669D01*
X217445Y143897D01*
X213759Y143897D01*
X221243Y141440D02*
X221243Y136525D01*
X221243Y141440D02*
X223700Y143897D01*
X226158Y141440D01*
X226158Y136525D01*
X226158Y140211D02*
X221243Y140211D01*
X209961Y118497D02*
X211189Y117269D01*
X209961Y118497D02*
X207503Y118497D01*
X206275Y117269D01*
X206275Y116040D01*
X207503Y114811D01*
X209961Y114811D01*
X211189Y113582D01*
X211189Y112354D01*
X209961Y111125D01*
X207503Y111125D01*
X206275Y112354D01*
X217445Y118497D02*
X218674Y117269D01*
X217445Y118497D02*
X214987Y118497D01*
X213759Y117269D01*
X213759Y112354D01*
X214987Y111125D01*
X217445Y111125D01*
X218674Y112354D01*
X221243Y111125D02*
X221243Y118497D01*
X221243Y111125D02*
X226158Y111125D01*
X206529Y239395D02*
X206529Y246767D01*
X210215Y246767D01*
X211443Y245539D01*
X211443Y243081D01*
X210215Y241852D01*
X206529Y241852D01*
X208986Y241852D02*
X211443Y239395D01*
X217699Y246767D02*
X218928Y245539D01*
X217699Y246767D02*
X215241Y246767D01*
X214013Y245539D01*
X214013Y244310D01*
X215241Y243081D01*
X217699Y243081D01*
X218928Y241852D01*
X218928Y240624D01*
X217699Y239395D01*
X215241Y239395D01*
X214013Y240624D01*
X223954Y239395D02*
X223954Y246767D01*
X221497Y246767D02*
X226412Y246767D01*
X85677Y208750D02*
X84449Y207521D01*
X84449Y205064D01*
X85677Y203835D01*
X86906Y203835D01*
X88135Y205064D01*
X88135Y207521D01*
X89364Y208750D01*
X90592Y208750D01*
X91821Y207521D01*
X91821Y205064D01*
X90592Y203835D01*
X91821Y213777D02*
X84449Y213777D01*
X84449Y216234D02*
X84449Y211319D01*
X86906Y218803D02*
X91821Y218803D01*
X86906Y218803D02*
X84449Y221261D01*
X86906Y223718D01*
X91821Y223718D01*
X88135Y223718D02*
X88135Y218803D01*
X91821Y228745D02*
X84449Y228745D01*
X84449Y231202D02*
X84449Y226287D01*
D12*
X30538Y325878D02*
X30538Y353818D01*
X30538Y325878D02*
X17838Y325878D01*
X17838Y353818D01*
X30538Y353818D01*
D13*
X34882Y397084D02*
X34882Y411084D01*
X8882Y411084D01*
X8882Y369084D02*
X34882Y369084D01*
X34882Y383084D01*
X8882Y397084D02*
X8882Y411084D01*
X8882Y383084D02*
X8882Y369084D01*
X35882Y397084D02*
X35882Y410084D01*
X35882Y383084D02*
X35882Y370084D01*
X36882Y397084D02*
X36882Y411084D01*
X36882Y383084D02*
X36882Y369084D01*
X36882Y411084D02*
X34882Y411084D01*
X34882Y397084D02*
X36882Y397084D01*
X36882Y383084D02*
X34882Y383084D01*
X34882Y369084D02*
X36882Y369084D01*
D12*
X39566Y75960D02*
X11626Y75960D01*
X11626Y88660D01*
X39566Y88660D01*
X39566Y75960D01*
X39610Y60622D02*
X11670Y60622D01*
X11670Y73322D01*
X39610Y73322D01*
X39610Y60622D01*
D14*
X137786Y55000D02*
X137788Y55075D01*
X137794Y55149D01*
X137804Y55223D01*
X137817Y55296D01*
X137835Y55369D01*
X137856Y55440D01*
X137881Y55511D01*
X137910Y55580D01*
X137943Y55647D01*
X137979Y55712D01*
X138018Y55776D01*
X138060Y55837D01*
X138106Y55896D01*
X138155Y55953D01*
X138207Y56006D01*
X138261Y56057D01*
X138318Y56106D01*
X138378Y56150D01*
X138440Y56192D01*
X138504Y56231D01*
X138570Y56266D01*
X138637Y56297D01*
X138707Y56325D01*
X138777Y56349D01*
X138849Y56370D01*
X138922Y56386D01*
X138995Y56399D01*
X139070Y56408D01*
X139144Y56413D01*
X139219Y56414D01*
X139293Y56411D01*
X139368Y56404D01*
X139441Y56393D01*
X139515Y56379D01*
X139587Y56360D01*
X139658Y56338D01*
X139728Y56312D01*
X139797Y56282D01*
X139863Y56249D01*
X139928Y56212D01*
X139991Y56172D01*
X140052Y56128D01*
X140110Y56082D01*
X140166Y56032D01*
X140219Y55980D01*
X140270Y55925D01*
X140317Y55867D01*
X140361Y55807D01*
X140402Y55744D01*
X140440Y55680D01*
X140474Y55614D01*
X140505Y55545D01*
X140532Y55476D01*
X140555Y55405D01*
X140574Y55333D01*
X140590Y55260D01*
X140602Y55186D01*
X140610Y55112D01*
X140614Y55037D01*
X140614Y54963D01*
X140610Y54888D01*
X140602Y54814D01*
X140590Y54740D01*
X140574Y54667D01*
X140555Y54595D01*
X140532Y54524D01*
X140505Y54455D01*
X140474Y54386D01*
X140440Y54320D01*
X140402Y54256D01*
X140361Y54193D01*
X140317Y54133D01*
X140270Y54075D01*
X140219Y54020D01*
X140166Y53968D01*
X140110Y53918D01*
X140052Y53872D01*
X139991Y53828D01*
X139928Y53788D01*
X139863Y53751D01*
X139797Y53718D01*
X139728Y53688D01*
X139658Y53662D01*
X139587Y53640D01*
X139515Y53621D01*
X139441Y53607D01*
X139368Y53596D01*
X139293Y53589D01*
X139219Y53586D01*
X139144Y53587D01*
X139070Y53592D01*
X138995Y53601D01*
X138922Y53614D01*
X138849Y53630D01*
X138777Y53651D01*
X138707Y53675D01*
X138637Y53703D01*
X138570Y53734D01*
X138504Y53769D01*
X138440Y53808D01*
X138378Y53850D01*
X138318Y53894D01*
X138261Y53943D01*
X138207Y53994D01*
X138155Y54047D01*
X138106Y54104D01*
X138060Y54163D01*
X138018Y54224D01*
X137979Y54288D01*
X137943Y54353D01*
X137910Y54420D01*
X137881Y54489D01*
X137856Y54560D01*
X137835Y54631D01*
X137817Y54704D01*
X137804Y54777D01*
X137794Y54851D01*
X137788Y54925D01*
X137786Y55000D01*
D15*
X149200Y6000D02*
X179200Y6000D01*
X134200Y32000D02*
X134200Y48500D01*
X186700Y48500D02*
X194200Y48500D01*
X194200Y32000D01*
X141700Y48500D02*
X134200Y48500D01*
D14*
X65926Y55000D02*
X65928Y55075D01*
X65934Y55149D01*
X65944Y55223D01*
X65957Y55296D01*
X65975Y55369D01*
X65996Y55440D01*
X66021Y55511D01*
X66050Y55580D01*
X66083Y55647D01*
X66119Y55712D01*
X66158Y55776D01*
X66200Y55837D01*
X66246Y55896D01*
X66295Y55953D01*
X66347Y56006D01*
X66401Y56057D01*
X66458Y56106D01*
X66518Y56150D01*
X66580Y56192D01*
X66644Y56231D01*
X66710Y56266D01*
X66777Y56297D01*
X66847Y56325D01*
X66917Y56349D01*
X66989Y56370D01*
X67062Y56386D01*
X67135Y56399D01*
X67210Y56408D01*
X67284Y56413D01*
X67359Y56414D01*
X67433Y56411D01*
X67508Y56404D01*
X67581Y56393D01*
X67655Y56379D01*
X67727Y56360D01*
X67798Y56338D01*
X67868Y56312D01*
X67937Y56282D01*
X68003Y56249D01*
X68068Y56212D01*
X68131Y56172D01*
X68192Y56128D01*
X68250Y56082D01*
X68306Y56032D01*
X68359Y55980D01*
X68410Y55925D01*
X68457Y55867D01*
X68501Y55807D01*
X68542Y55744D01*
X68580Y55680D01*
X68614Y55614D01*
X68645Y55545D01*
X68672Y55476D01*
X68695Y55405D01*
X68714Y55333D01*
X68730Y55260D01*
X68742Y55186D01*
X68750Y55112D01*
X68754Y55037D01*
X68754Y54963D01*
X68750Y54888D01*
X68742Y54814D01*
X68730Y54740D01*
X68714Y54667D01*
X68695Y54595D01*
X68672Y54524D01*
X68645Y54455D01*
X68614Y54386D01*
X68580Y54320D01*
X68542Y54256D01*
X68501Y54193D01*
X68457Y54133D01*
X68410Y54075D01*
X68359Y54020D01*
X68306Y53968D01*
X68250Y53918D01*
X68192Y53872D01*
X68131Y53828D01*
X68068Y53788D01*
X68003Y53751D01*
X67937Y53718D01*
X67868Y53688D01*
X67798Y53662D01*
X67727Y53640D01*
X67655Y53621D01*
X67581Y53607D01*
X67508Y53596D01*
X67433Y53589D01*
X67359Y53586D01*
X67284Y53587D01*
X67210Y53592D01*
X67135Y53601D01*
X67062Y53614D01*
X66989Y53630D01*
X66917Y53651D01*
X66847Y53675D01*
X66777Y53703D01*
X66710Y53734D01*
X66644Y53769D01*
X66580Y53808D01*
X66518Y53850D01*
X66458Y53894D01*
X66401Y53943D01*
X66347Y53994D01*
X66295Y54047D01*
X66246Y54104D01*
X66200Y54163D01*
X66158Y54224D01*
X66119Y54288D01*
X66083Y54353D01*
X66050Y54420D01*
X66021Y54489D01*
X65996Y54560D01*
X65975Y54631D01*
X65957Y54704D01*
X65944Y54777D01*
X65934Y54851D01*
X65928Y54925D01*
X65926Y55000D01*
D15*
X77340Y6000D02*
X107340Y6000D01*
X62340Y32000D02*
X62340Y48500D01*
X114840Y48500D02*
X122340Y48500D01*
X122340Y32000D01*
X69840Y48500D02*
X62340Y48500D01*
D16*
X1570Y263032D02*
X1570Y302032D01*
X30570Y302032D01*
X30570Y263032D01*
X1570Y263032D01*
X7070Y282532D02*
X7073Y282753D01*
X7081Y282974D01*
X7094Y283194D01*
X7113Y283414D01*
X7138Y283634D01*
X7167Y283853D01*
X7203Y284071D01*
X7243Y284288D01*
X7289Y284504D01*
X7340Y284719D01*
X7396Y284932D01*
X7458Y285145D01*
X7524Y285355D01*
X7596Y285564D01*
X7673Y285771D01*
X7755Y285976D01*
X7842Y286179D01*
X7934Y286380D01*
X8031Y286579D01*
X8133Y286775D01*
X8239Y286968D01*
X8350Y287159D01*
X8466Y287347D01*
X8587Y287532D01*
X8712Y287714D01*
X8841Y287893D01*
X8975Y288069D01*
X9113Y288242D01*
X9255Y288411D01*
X9401Y288576D01*
X9552Y288738D01*
X9706Y288896D01*
X9864Y289050D01*
X10026Y289201D01*
X10191Y289347D01*
X10360Y289489D01*
X10533Y289627D01*
X10709Y289761D01*
X10888Y289890D01*
X11070Y290015D01*
X11255Y290136D01*
X11443Y290252D01*
X11634Y290363D01*
X11827Y290469D01*
X12023Y290571D01*
X12222Y290668D01*
X12423Y290760D01*
X12626Y290847D01*
X12831Y290929D01*
X13038Y291006D01*
X13247Y291078D01*
X13457Y291144D01*
X13670Y291206D01*
X13883Y291262D01*
X14098Y291313D01*
X14314Y291359D01*
X14531Y291399D01*
X14749Y291435D01*
X14968Y291464D01*
X15188Y291489D01*
X15408Y291508D01*
X15628Y291521D01*
X15849Y291529D01*
X16070Y291532D01*
X16291Y291529D01*
X16512Y291521D01*
X16732Y291508D01*
X16952Y291489D01*
X17172Y291464D01*
X17391Y291435D01*
X17609Y291399D01*
X17826Y291359D01*
X18042Y291313D01*
X18257Y291262D01*
X18470Y291206D01*
X18683Y291144D01*
X18893Y291078D01*
X19102Y291006D01*
X19309Y290929D01*
X19514Y290847D01*
X19717Y290760D01*
X19918Y290668D01*
X20117Y290571D01*
X20313Y290469D01*
X20506Y290363D01*
X20697Y290252D01*
X20885Y290136D01*
X21070Y290015D01*
X21252Y289890D01*
X21431Y289761D01*
X21607Y289627D01*
X21780Y289489D01*
X21949Y289347D01*
X22114Y289201D01*
X22276Y289050D01*
X22434Y288896D01*
X22588Y288738D01*
X22739Y288576D01*
X22885Y288411D01*
X23027Y288242D01*
X23165Y288069D01*
X23299Y287893D01*
X23428Y287714D01*
X23553Y287532D01*
X23674Y287347D01*
X23790Y287159D01*
X23901Y286968D01*
X24007Y286775D01*
X24109Y286579D01*
X24206Y286380D01*
X24298Y286179D01*
X24385Y285976D01*
X24467Y285771D01*
X24544Y285564D01*
X24616Y285355D01*
X24682Y285145D01*
X24744Y284932D01*
X24800Y284719D01*
X24851Y284504D01*
X24897Y284288D01*
X24937Y284071D01*
X24973Y283853D01*
X25002Y283634D01*
X25027Y283414D01*
X25046Y283194D01*
X25059Y282974D01*
X25067Y282753D01*
X25070Y282532D01*
X25067Y282311D01*
X25059Y282090D01*
X25046Y281870D01*
X25027Y281650D01*
X25002Y281430D01*
X24973Y281211D01*
X24937Y280993D01*
X24897Y280776D01*
X24851Y280560D01*
X24800Y280345D01*
X24744Y280132D01*
X24682Y279919D01*
X24616Y279709D01*
X24544Y279500D01*
X24467Y279293D01*
X24385Y279088D01*
X24298Y278885D01*
X24206Y278684D01*
X24109Y278485D01*
X24007Y278289D01*
X23901Y278096D01*
X23790Y277905D01*
X23674Y277717D01*
X23553Y277532D01*
X23428Y277350D01*
X23299Y277171D01*
X23165Y276995D01*
X23027Y276822D01*
X22885Y276653D01*
X22739Y276488D01*
X22588Y276326D01*
X22434Y276168D01*
X22276Y276014D01*
X22114Y275863D01*
X21949Y275717D01*
X21780Y275575D01*
X21607Y275437D01*
X21431Y275303D01*
X21252Y275174D01*
X21070Y275049D01*
X20885Y274928D01*
X20697Y274812D01*
X20506Y274701D01*
X20313Y274595D01*
X20117Y274493D01*
X19918Y274396D01*
X19717Y274304D01*
X19514Y274217D01*
X19309Y274135D01*
X19102Y274058D01*
X18893Y273986D01*
X18683Y273920D01*
X18470Y273858D01*
X18257Y273802D01*
X18042Y273751D01*
X17826Y273705D01*
X17609Y273665D01*
X17391Y273629D01*
X17172Y273600D01*
X16952Y273575D01*
X16732Y273556D01*
X16512Y273543D01*
X16291Y273535D01*
X16070Y273532D01*
X15849Y273535D01*
X15628Y273543D01*
X15408Y273556D01*
X15188Y273575D01*
X14968Y273600D01*
X14749Y273629D01*
X14531Y273665D01*
X14314Y273705D01*
X14098Y273751D01*
X13883Y273802D01*
X13670Y273858D01*
X13457Y273920D01*
X13247Y273986D01*
X13038Y274058D01*
X12831Y274135D01*
X12626Y274217D01*
X12423Y274304D01*
X12222Y274396D01*
X12023Y274493D01*
X11827Y274595D01*
X11634Y274701D01*
X11443Y274812D01*
X11255Y274928D01*
X11070Y275049D01*
X10888Y275174D01*
X10709Y275303D01*
X10533Y275437D01*
X10360Y275575D01*
X10191Y275717D01*
X10026Y275863D01*
X9864Y276014D01*
X9706Y276168D01*
X9552Y276326D01*
X9401Y276488D01*
X9255Y276653D01*
X9113Y276822D01*
X8975Y276995D01*
X8841Y277171D01*
X8712Y277350D01*
X8587Y277532D01*
X8466Y277717D01*
X8350Y277905D01*
X8239Y278096D01*
X8133Y278289D01*
X8031Y278485D01*
X7934Y278684D01*
X7842Y278885D01*
X7755Y279088D01*
X7673Y279293D01*
X7596Y279500D01*
X7524Y279709D01*
X7458Y279919D01*
X7396Y280132D01*
X7340Y280345D01*
X7289Y280560D01*
X7243Y280776D01*
X7203Y280993D01*
X7167Y281211D01*
X7138Y281430D01*
X7113Y281650D01*
X7094Y281870D01*
X7081Y282090D01*
X7073Y282311D01*
X7070Y282532D01*
D17*
X94250Y175050D02*
X164350Y175050D01*
X164350Y104950D01*
X97800Y104950D01*
X94250Y108500D02*
X94250Y175050D01*
X94250Y108500D02*
X97800Y104950D01*
X98276Y112568D02*
X98278Y112687D01*
X98284Y112807D01*
X98294Y112926D01*
X98308Y113044D01*
X98326Y113162D01*
X98347Y113280D01*
X98373Y113396D01*
X98402Y113512D01*
X98436Y113627D01*
X98473Y113740D01*
X98514Y113852D01*
X98558Y113963D01*
X98606Y114073D01*
X98658Y114180D01*
X98713Y114286D01*
X98772Y114390D01*
X98835Y114492D01*
X98900Y114591D01*
X98969Y114689D01*
X99041Y114784D01*
X99116Y114877D01*
X99195Y114967D01*
X99276Y115055D01*
X99360Y115139D01*
X99447Y115221D01*
X99536Y115300D01*
X99628Y115376D01*
X99723Y115449D01*
X99820Y115519D01*
X99919Y115585D01*
X100021Y115648D01*
X100124Y115708D01*
X100229Y115764D01*
X100336Y115817D01*
X100445Y115866D01*
X100556Y115912D01*
X100668Y115953D01*
X100781Y115991D01*
X100895Y116026D01*
X101011Y116056D01*
X101127Y116083D01*
X101244Y116105D01*
X101362Y116124D01*
X101481Y116139D01*
X101600Y116150D01*
X101719Y116157D01*
X101838Y116160D01*
X101958Y116159D01*
X102077Y116154D01*
X102196Y116145D01*
X102315Y116132D01*
X102433Y116115D01*
X102550Y116095D01*
X102667Y116070D01*
X102783Y116041D01*
X102898Y116009D01*
X103012Y115973D01*
X103125Y115933D01*
X103236Y115889D01*
X103345Y115842D01*
X103453Y115791D01*
X103560Y115737D01*
X103664Y115679D01*
X103766Y115617D01*
X103867Y115553D01*
X103965Y115484D01*
X104061Y115413D01*
X104154Y115339D01*
X104245Y115261D01*
X104333Y115181D01*
X104418Y115097D01*
X104501Y115011D01*
X104581Y114922D01*
X104658Y114831D01*
X104731Y114737D01*
X104802Y114640D01*
X104869Y114542D01*
X104933Y114441D01*
X104994Y114338D01*
X105051Y114233D01*
X105104Y114127D01*
X105154Y114018D01*
X105201Y113908D01*
X105243Y113797D01*
X105282Y113684D01*
X105318Y113570D01*
X105349Y113454D01*
X105376Y113338D01*
X105400Y113221D01*
X105420Y113103D01*
X105436Y112985D01*
X105448Y112866D01*
X105456Y112747D01*
X105460Y112628D01*
X105460Y112508D01*
X105456Y112389D01*
X105448Y112270D01*
X105436Y112151D01*
X105420Y112033D01*
X105400Y111915D01*
X105376Y111798D01*
X105349Y111682D01*
X105318Y111566D01*
X105282Y111452D01*
X105243Y111339D01*
X105201Y111228D01*
X105154Y111118D01*
X105104Y111009D01*
X105051Y110903D01*
X104994Y110798D01*
X104933Y110695D01*
X104869Y110594D01*
X104802Y110496D01*
X104731Y110399D01*
X104658Y110305D01*
X104581Y110214D01*
X104501Y110125D01*
X104418Y110039D01*
X104333Y109955D01*
X104245Y109875D01*
X104154Y109797D01*
X104061Y109723D01*
X103965Y109652D01*
X103867Y109583D01*
X103766Y109519D01*
X103664Y109457D01*
X103560Y109399D01*
X103453Y109345D01*
X103345Y109294D01*
X103236Y109247D01*
X103125Y109203D01*
X103012Y109163D01*
X102898Y109127D01*
X102783Y109095D01*
X102667Y109066D01*
X102550Y109041D01*
X102433Y109021D01*
X102315Y109004D01*
X102196Y108991D01*
X102077Y108982D01*
X101958Y108977D01*
X101838Y108976D01*
X101719Y108979D01*
X101600Y108986D01*
X101481Y108997D01*
X101362Y109012D01*
X101244Y109031D01*
X101127Y109053D01*
X101011Y109080D01*
X100895Y109110D01*
X100781Y109145D01*
X100668Y109183D01*
X100556Y109224D01*
X100445Y109270D01*
X100336Y109319D01*
X100229Y109372D01*
X100124Y109428D01*
X100021Y109488D01*
X99919Y109551D01*
X99820Y109617D01*
X99723Y109687D01*
X99628Y109760D01*
X99536Y109836D01*
X99447Y109915D01*
X99360Y109997D01*
X99276Y110081D01*
X99195Y110169D01*
X99116Y110259D01*
X99041Y110352D01*
X98969Y110447D01*
X98900Y110545D01*
X98835Y110644D01*
X98772Y110746D01*
X98713Y110850D01*
X98658Y110956D01*
X98606Y111063D01*
X98558Y111173D01*
X98514Y111284D01*
X98473Y111396D01*
X98436Y111509D01*
X98402Y111624D01*
X98373Y111740D01*
X98347Y111856D01*
X98326Y111974D01*
X98308Y112092D01*
X98294Y112210D01*
X98284Y112329D01*
X98278Y112449D01*
X98276Y112568D01*
D12*
X159766Y195326D02*
X159766Y223266D01*
X172466Y223266D01*
X172466Y195326D01*
X159766Y195326D01*
X139700Y195326D02*
X139700Y223266D01*
X139700Y195326D02*
X127000Y195326D01*
X127000Y223266D01*
X139700Y223266D01*
X139700Y85344D02*
X111760Y85344D01*
X139700Y85344D02*
X139700Y72644D01*
X111760Y72644D01*
X111760Y85344D01*
X155702Y195326D02*
X155702Y223266D01*
X155702Y195326D02*
X143002Y195326D01*
X143002Y223266D01*
X155702Y223266D01*
X70168Y225678D02*
X70168Y209678D01*
X70168Y225678D02*
X78168Y225678D01*
X78168Y209678D01*
X70168Y209678D01*
X70358Y216408D02*
X77978Y216408D01*
X76073Y217678D01*
X74168Y218948D01*
X72263Y217678D01*
X70358Y216408D01*
X71628Y217043D02*
X76708Y217043D01*
X76073Y217678D02*
X72263Y217678D01*
X54420Y209678D02*
X54420Y225678D01*
X62420Y225678D01*
X62420Y209678D01*
X54420Y209678D01*
X54610Y216408D02*
X62230Y216408D01*
X60325Y217678D01*
X58420Y218948D01*
X56515Y217678D01*
X54610Y216408D01*
X55880Y217043D02*
X60960Y217043D01*
X60325Y217678D02*
X56515Y217678D01*
X80010Y204470D02*
X80010Y176530D01*
X67310Y176530D01*
X67310Y204470D01*
X80010Y204470D01*
X65024Y204216D02*
X65024Y176276D01*
X52324Y176276D01*
X52324Y204216D01*
X65024Y204216D01*
X27700Y249174D02*
X2300Y249174D01*
X27700Y249174D02*
X27700Y96774D01*
X2300Y96774D01*
X2300Y249174D01*
D13*
X168182Y77320D02*
X169182Y77320D01*
X168182Y77320D02*
X168182Y90320D01*
X169182Y90320D01*
X203182Y90320D02*
X204682Y90320D01*
X204682Y77320D01*
X203182Y77320D01*
D12*
X203708Y114300D02*
X203708Y142240D01*
X203708Y114300D02*
X191008Y114300D01*
X191008Y142240D01*
X203708Y142240D01*
X46990Y153416D02*
X46990Y125476D01*
X46990Y153416D02*
X59690Y153416D01*
X59690Y125476D01*
X46990Y125476D01*
X230900Y102870D02*
X256300Y102870D01*
X230900Y102870D02*
X230900Y255270D01*
X256300Y255270D01*
X256300Y102870D01*
X174446Y273502D02*
X174448Y273643D01*
X174454Y273784D01*
X174464Y273924D01*
X174478Y274064D01*
X174496Y274204D01*
X174517Y274343D01*
X174543Y274482D01*
X174572Y274620D01*
X174606Y274756D01*
X174643Y274892D01*
X174684Y275027D01*
X174729Y275161D01*
X174778Y275293D01*
X174830Y275424D01*
X174886Y275553D01*
X174946Y275680D01*
X175009Y275806D01*
X175075Y275930D01*
X175146Y276053D01*
X175219Y276173D01*
X175296Y276291D01*
X175376Y276407D01*
X175460Y276520D01*
X175546Y276631D01*
X175636Y276740D01*
X175729Y276846D01*
X175824Y276949D01*
X175923Y277050D01*
X176024Y277148D01*
X176128Y277243D01*
X176235Y277335D01*
X176344Y277424D01*
X176456Y277509D01*
X176570Y277592D01*
X176686Y277672D01*
X176805Y277748D01*
X176926Y277820D01*
X177048Y277890D01*
X177173Y277955D01*
X177299Y278018D01*
X177427Y278076D01*
X177557Y278131D01*
X177688Y278183D01*
X177821Y278230D01*
X177955Y278274D01*
X178090Y278315D01*
X178226Y278351D01*
X178363Y278383D01*
X178501Y278412D01*
X178639Y278437D01*
X178779Y278457D01*
X178919Y278474D01*
X179059Y278487D01*
X179200Y278496D01*
X179340Y278501D01*
X179481Y278502D01*
X179622Y278499D01*
X179763Y278492D01*
X179903Y278481D01*
X180043Y278466D01*
X180183Y278447D01*
X180322Y278425D01*
X180460Y278398D01*
X180598Y278368D01*
X180734Y278333D01*
X180870Y278295D01*
X181004Y278253D01*
X181138Y278207D01*
X181270Y278158D01*
X181400Y278104D01*
X181529Y278047D01*
X181656Y277987D01*
X181782Y277923D01*
X181905Y277855D01*
X182027Y277784D01*
X182147Y277710D01*
X182264Y277632D01*
X182379Y277551D01*
X182492Y277467D01*
X182603Y277380D01*
X182711Y277289D01*
X182816Y277196D01*
X182919Y277099D01*
X183019Y277000D01*
X183116Y276898D01*
X183210Y276793D01*
X183301Y276686D01*
X183389Y276576D01*
X183474Y276464D01*
X183556Y276349D01*
X183635Y276232D01*
X183710Y276113D01*
X183782Y275992D01*
X183850Y275869D01*
X183915Y275744D01*
X183977Y275617D01*
X184034Y275488D01*
X184089Y275358D01*
X184139Y275227D01*
X184186Y275094D01*
X184229Y274960D01*
X184268Y274824D01*
X184303Y274688D01*
X184335Y274551D01*
X184362Y274413D01*
X184386Y274274D01*
X184406Y274134D01*
X184422Y273994D01*
X184434Y273854D01*
X184442Y273713D01*
X184446Y273572D01*
X184446Y273432D01*
X184442Y273291D01*
X184434Y273150D01*
X184422Y273010D01*
X184406Y272870D01*
X184386Y272730D01*
X184362Y272591D01*
X184335Y272453D01*
X184303Y272316D01*
X184268Y272180D01*
X184229Y272044D01*
X184186Y271910D01*
X184139Y271777D01*
X184089Y271646D01*
X184034Y271516D01*
X183977Y271387D01*
X183915Y271260D01*
X183850Y271135D01*
X183782Y271012D01*
X183710Y270891D01*
X183635Y270772D01*
X183556Y270655D01*
X183474Y270540D01*
X183389Y270428D01*
X183301Y270318D01*
X183210Y270211D01*
X183116Y270106D01*
X183019Y270004D01*
X182919Y269905D01*
X182816Y269808D01*
X182711Y269715D01*
X182603Y269624D01*
X182492Y269537D01*
X182379Y269453D01*
X182264Y269372D01*
X182147Y269294D01*
X182027Y269220D01*
X181905Y269149D01*
X181782Y269081D01*
X181656Y269017D01*
X181529Y268957D01*
X181400Y268900D01*
X181270Y268846D01*
X181138Y268797D01*
X181004Y268751D01*
X180870Y268709D01*
X180734Y268671D01*
X180598Y268636D01*
X180460Y268606D01*
X180322Y268579D01*
X180183Y268557D01*
X180043Y268538D01*
X179903Y268523D01*
X179763Y268512D01*
X179622Y268505D01*
X179481Y268502D01*
X179340Y268503D01*
X179200Y268508D01*
X179059Y268517D01*
X178919Y268530D01*
X178779Y268547D01*
X178639Y268567D01*
X178501Y268592D01*
X178363Y268621D01*
X178226Y268653D01*
X178090Y268689D01*
X177955Y268730D01*
X177821Y268774D01*
X177688Y268821D01*
X177557Y268873D01*
X177427Y268928D01*
X177299Y268986D01*
X177173Y269049D01*
X177048Y269114D01*
X176926Y269184D01*
X176805Y269256D01*
X176686Y269332D01*
X176570Y269412D01*
X176456Y269495D01*
X176344Y269580D01*
X176235Y269669D01*
X176128Y269761D01*
X176024Y269856D01*
X175923Y269954D01*
X175824Y270055D01*
X175729Y270158D01*
X175636Y270264D01*
X175546Y270373D01*
X175460Y270484D01*
X175376Y270597D01*
X175296Y270713D01*
X175219Y270831D01*
X175146Y270951D01*
X175075Y271074D01*
X175009Y271198D01*
X174946Y271324D01*
X174886Y271451D01*
X174830Y271580D01*
X174778Y271711D01*
X174729Y271843D01*
X174684Y271977D01*
X174643Y272112D01*
X174606Y272248D01*
X174572Y272384D01*
X174543Y272522D01*
X174517Y272661D01*
X174496Y272800D01*
X174478Y272940D01*
X174464Y273080D01*
X174454Y273220D01*
X174448Y273361D01*
X174446Y273502D01*
X219446Y253502D02*
X59446Y253502D01*
X59446Y413502D02*
X219446Y413502D01*
M02*
