M48
;GenerationSoftware,Autodesk,EAGLE,9.2.2*%
;CreationDate,2019-01-11T08:56:36Z*%
FMAT,2
ICI,OFF
METRIC,TZ,000.000
T3C0.305
T2C0.889
T1C3.000
%
G90
M71
T1
X2770Y2770
X23090Y2770
T2
X24360Y24257
X1500Y23647
X1500Y21107
X1500Y18567
X1500Y16027
X1500Y13487
X1500Y10947
X24360Y11557
X24360Y14097
X24360Y16637
X24360Y19177
X24360Y21717
T3
X15443Y13589
X5537Y16129
X15951Y15621
X15189Y15113
X12065Y19863
X1270Y35814
X1270Y34798
X1270Y33782
X1270Y32766
X7874Y1651
X9144Y1651
X10414Y1651
X15240Y1651
X16510Y1651
X17780Y1651
X12192Y6477
X13462Y6477
X13056Y5461
X11938Y5461
X14884Y17069
X14097Y16358
X10160Y14402
X11176Y14402
X24335Y39917
X24380Y37934
X24349Y38898
X22174Y23571
X18580Y20614
X18600Y18414
X19480Y17074
X18550Y14364
X22364Y25241
X13157Y11049
X8738Y4013
X14490Y7454
X16612Y22860
X17386Y10351
X3505Y34290
X15850Y16916
X16612Y19050
X20091Y23038
X19787Y18364
X19863Y15951
X19787Y20879
X16027Y14402
X19355Y36347
X16002Y11989
X4420Y28346
X14351Y12802
X3835Y26340
X11252Y4343
X17932Y4064
X4242Y9144
X6553Y14402
X4978Y8357
X1016Y9271
X991Y8230
X1016Y6706
X10930Y19863
X7468Y12802
X5639Y11100
X9373Y9703
X3632Y30353
X10947Y10871
X914Y12217
X914Y14732
X23434Y31351
X889Y17297
X864Y22276
X24968Y23012
X24968Y20396
X25019Y17882
X25019Y15367
X889Y19837
X12141Y11049
X14173Y11049
X15189Y11049
X7214Y15189
M30