G04 EAGLE Gerber RS-274X export*
G75*
%MOMM*%
%FSLAX34Y34*%
%LPD*%
%INSoldermask Top*%
%IPPOS*%
%AMOC8*
5,1,8,0,0,1.08239X$1,22.5*%
G01*
%ADD10C,3.101600*%
%ADD11C,0.326897*%
%ADD12R,2.301600X1.151600*%
%ADD13R,0.901600X1.101600*%
%ADD14R,0.701600X1.451600*%
%ADD15R,1.301600X2.101600*%
%ADD16R,2.101600X0.971600*%
%ADD17R,0.660400X1.371600*%
%ADD18R,1.371600X0.660400*%
%ADD19C,0.257809*%
%ADD20R,1.625600X1.625600*%
%ADD21C,1.625600*%
%ADD22R,0.801600X1.801600*%
%ADD23R,3.101600X1.101600*%


D10*
X27700Y27700D03*
X230900Y27700D03*
D11*
X20869Y344149D02*
X20869Y350787D01*
X27507Y350787D01*
X27507Y344149D01*
X20869Y344149D01*
X20869Y347255D02*
X27507Y347255D01*
X27507Y350361D02*
X20869Y350361D01*
X20869Y335547D02*
X20869Y328909D01*
X20869Y335547D02*
X27507Y335547D01*
X27507Y328909D01*
X20869Y328909D01*
X20869Y332015D02*
X27507Y332015D01*
X27507Y335121D02*
X20869Y335121D01*
D12*
X21882Y403834D03*
X21882Y376334D03*
D13*
X37132Y390084D03*
D11*
X36535Y85629D02*
X29897Y85629D01*
X36535Y85629D02*
X36535Y78991D01*
X29897Y78991D01*
X29897Y85629D01*
X29897Y82097D02*
X36535Y82097D01*
X36535Y85203D02*
X29897Y85203D01*
X21295Y85629D02*
X14657Y85629D01*
X21295Y85629D02*
X21295Y78991D01*
X14657Y78991D01*
X14657Y85629D01*
X14657Y82097D02*
X21295Y82097D01*
X21295Y85203D02*
X14657Y85203D01*
X29941Y70291D02*
X36579Y70291D01*
X36579Y63653D01*
X29941Y63653D01*
X29941Y70291D01*
X29941Y66759D02*
X36579Y66759D01*
X36579Y69865D02*
X29941Y69865D01*
X21339Y70291D02*
X14701Y70291D01*
X21339Y70291D02*
X21339Y63653D01*
X14701Y63653D01*
X14701Y70291D01*
X14701Y66759D02*
X21339Y66759D01*
X21339Y69865D02*
X14701Y69865D01*
D14*
X149200Y52000D03*
X159200Y52000D03*
X169200Y52000D03*
X179200Y52000D03*
D15*
X192200Y15250D03*
X136200Y15250D03*
D14*
X77340Y52000D03*
X87340Y52000D03*
X97340Y52000D03*
X107340Y52000D03*
D15*
X120340Y15250D03*
X64340Y15250D03*
D16*
X16070Y259532D03*
X16070Y305532D03*
D17*
X101300Y97074D03*
X109300Y97074D03*
X117300Y97074D03*
X125300Y97074D03*
X133300Y97074D03*
X141300Y97074D03*
X149300Y97074D03*
X157300Y97074D03*
D18*
X172226Y112000D03*
X172226Y120000D03*
X172226Y128000D03*
X172226Y136000D03*
X172226Y144000D03*
X172226Y152000D03*
X172226Y160000D03*
X172226Y168000D03*
D17*
X157300Y182926D03*
X149300Y182926D03*
X141300Y182926D03*
X133300Y182926D03*
X125300Y182926D03*
X117300Y182926D03*
X109300Y182926D03*
X101300Y182926D03*
D18*
X86374Y168000D03*
X86374Y160000D03*
X86374Y152000D03*
X86374Y144000D03*
X86374Y136000D03*
X86374Y128000D03*
X86374Y120000D03*
X86374Y112000D03*
D11*
X169435Y198357D02*
X169435Y204995D01*
X169435Y198357D02*
X162797Y198357D01*
X162797Y204995D01*
X169435Y204995D01*
X169435Y201463D02*
X162797Y201463D01*
X162797Y204569D02*
X169435Y204569D01*
X169435Y213597D02*
X169435Y220235D01*
X169435Y213597D02*
X162797Y213597D01*
X162797Y220235D01*
X169435Y220235D01*
X169435Y216703D02*
X162797Y216703D01*
X162797Y219809D02*
X169435Y219809D01*
X130031Y220235D02*
X130031Y213597D01*
X130031Y220235D02*
X136669Y220235D01*
X136669Y213597D01*
X130031Y213597D01*
X130031Y216703D02*
X136669Y216703D01*
X136669Y219809D02*
X130031Y219809D01*
X130031Y204995D02*
X130031Y198357D01*
X130031Y204995D02*
X136669Y204995D01*
X136669Y198357D01*
X130031Y198357D01*
X130031Y201463D02*
X136669Y201463D01*
X136669Y204569D02*
X130031Y204569D01*
X121429Y75675D02*
X114791Y75675D01*
X114791Y82313D01*
X121429Y82313D01*
X121429Y75675D01*
X121429Y78781D02*
X114791Y78781D01*
X114791Y81887D02*
X121429Y81887D01*
X130031Y75675D02*
X136669Y75675D01*
X130031Y75675D02*
X130031Y82313D01*
X136669Y82313D01*
X136669Y75675D01*
X136669Y78781D02*
X130031Y78781D01*
X130031Y81887D02*
X136669Y81887D01*
X146033Y213597D02*
X146033Y220235D01*
X152671Y220235D01*
X152671Y213597D01*
X146033Y213597D01*
X146033Y216703D02*
X152671Y216703D01*
X152671Y219809D02*
X146033Y219809D01*
X146033Y204995D02*
X146033Y198357D01*
X146033Y204995D02*
X152671Y204995D01*
X152671Y198357D01*
X146033Y198357D01*
X146033Y201463D02*
X152671Y201463D01*
X152671Y204569D02*
X146033Y204569D01*
D19*
X77387Y208299D02*
X77387Y213087D01*
X77387Y208299D02*
X70949Y208299D01*
X70949Y213087D01*
X77387Y213087D01*
X77387Y210748D02*
X70949Y210748D01*
X77387Y222269D02*
X77387Y227057D01*
X77387Y222269D02*
X70949Y222269D01*
X70949Y227057D01*
X77387Y227057D01*
X77387Y224718D02*
X70949Y224718D01*
X61639Y213087D02*
X61639Y208299D01*
X55201Y208299D01*
X55201Y213087D01*
X61639Y213087D01*
X61639Y210748D02*
X55201Y210748D01*
X61639Y222269D02*
X61639Y227057D01*
X61639Y222269D02*
X55201Y222269D01*
X55201Y227057D01*
X61639Y227057D01*
X61639Y224718D02*
X55201Y224718D01*
D11*
X70341Y201439D02*
X70341Y194801D01*
X70341Y201439D02*
X76979Y201439D01*
X76979Y194801D01*
X70341Y194801D01*
X70341Y197907D02*
X76979Y197907D01*
X76979Y201013D02*
X70341Y201013D01*
X70341Y186199D02*
X70341Y179561D01*
X70341Y186199D02*
X76979Y186199D01*
X76979Y179561D01*
X70341Y179561D01*
X70341Y182667D02*
X76979Y182667D01*
X76979Y185773D02*
X70341Y185773D01*
X55355Y194547D02*
X55355Y201185D01*
X61993Y201185D01*
X61993Y194547D01*
X55355Y194547D01*
X55355Y197653D02*
X61993Y197653D01*
X61993Y200759D02*
X55355Y200759D01*
X55355Y185945D02*
X55355Y179307D01*
X55355Y185945D02*
X61993Y185945D01*
X61993Y179307D01*
X55355Y179307D01*
X55355Y182413D02*
X61993Y182413D01*
X61993Y185519D02*
X55355Y185519D01*
D20*
X15000Y236474D03*
D21*
X15000Y211074D03*
X15000Y185674D03*
X15000Y160274D03*
X15000Y134874D03*
X15000Y109474D03*
D22*
X198182Y83820D03*
X186182Y83820D03*
X174182Y83820D03*
D11*
X194039Y132571D02*
X194039Y139209D01*
X200677Y139209D01*
X200677Y132571D01*
X194039Y132571D01*
X194039Y135677D02*
X200677Y135677D01*
X200677Y138783D02*
X194039Y138783D01*
X194039Y123969D02*
X194039Y117331D01*
X194039Y123969D02*
X200677Y123969D01*
X200677Y117331D01*
X194039Y117331D01*
X194039Y120437D02*
X200677Y120437D01*
X200677Y123543D02*
X194039Y123543D01*
X56659Y128507D02*
X56659Y135145D01*
X56659Y128507D02*
X50021Y128507D01*
X50021Y135145D01*
X56659Y135145D01*
X56659Y131613D02*
X50021Y131613D01*
X50021Y134719D02*
X56659Y134719D01*
X56659Y143747D02*
X56659Y150385D01*
X56659Y143747D02*
X50021Y143747D01*
X50021Y150385D01*
X56659Y150385D01*
X56659Y146853D02*
X50021Y146853D01*
X50021Y149959D02*
X56659Y149959D01*
D20*
X243600Y115570D03*
D21*
X243600Y140970D03*
X243600Y166370D03*
X243600Y191770D03*
X243600Y217170D03*
X243600Y242570D03*
D23*
X214446Y363502D03*
X64446Y323502D03*
X64446Y403502D03*
X64446Y303502D03*
X64446Y283502D03*
X64446Y263502D03*
X64446Y363502D03*
X64446Y343502D03*
X214446Y383502D03*
X214446Y263502D03*
X214446Y403502D03*
X64446Y383502D03*
X214446Y283502D03*
X214446Y303502D03*
X214446Y343502D03*
X214446Y323502D03*
M02*
